<svg xmlns="http://www.w3.org/2000/svg" xmlns:xlink="http://www.w3.org/1999/xlink" width="292" height="94.399" viewBox="0 0 292 94.399"><defs><clipPath id="a"><rect width="292" height="94.399" rx="20" fill="#d5dcbd"/></clipPath></defs><g transform="translate(-810 -1799.996)"><g transform="translate(810 1799.996)" clip-path="url(#a)"><path d="M17.59,0H310.128c9.715,0,17.59,2.837,17.59,6.336V135.9c0,3.5-7.875,6.336-17.59,6.336H17.59C7.875,142.233,0,139.4,0,135.9V6.336C0,2.837,7.875,0,17.59,0Z" transform="translate(-17.86 -7.603)" fill="#eaedde"/><path d="M0,14.507H12.749c0-8,9.354-14.489,20.894-14.489S54.534,6.505,54.534,14.507h17.9v-.031C72.453,6.472,81.817-.008,93.355,0s20.882,6.505,20.868,14.507h16.718v-.031c.011-8,9.376-14.483,20.916-14.476s20.879,6.505,20.868,14.507h17.5v-.031C190.24,6.472,199.6-.008,211.142,0s20.882,6.505,20.868,14.507h18.122v-.031c.014-8,9.379-14.483,20.916-14.476s20.882,6.505,20.868,14.507h17.068c0-8,9.354-14.491,20.894-14.491S350.771,6.5,350.771,14.507h17.638v-.031c.014-8,9.376-14.483,20.916-14.476s20.879,6.505,20.868,14.507h17.7v-.031c.014-8,9.376-14.483,20.916-14.476s20.882,6.505,20.868,14.507h14.572" transform="translate(146 14.507) rotate(180)" fill="#eaedde" opacity="0.6" style="mix-blend-mode:hard-light;isolation:isolate"/><path d="M0,18.559H12.749C12.749,8.322,22.1.023,33.643.023s20.891,8.3,20.891,18.536h17.9v-.04C72.453,8.279,81.817-.01,93.355,0s20.882,8.322,20.868,18.559h16.718v-.04C130.952,8.279,140.317-.01,151.857,0s20.879,8.322,20.868,18.559h17.5v-.04C190.24,8.279,199.6-.01,211.142,0s20.882,8.322,20.868,18.559h18.122v-.04C250.146,8.279,259.511-.01,271.049,0s20.882,8.322,20.868,18.559h17.068C308.984,8.32,318.338.02,329.878.02s20.894,8.3,20.894,18.539h17.638v-.04C368.424,8.279,377.786-.01,389.326,0s20.879,8.322,20.868,18.559h17.7v-.04C427.909,8.279,437.271-.01,448.811,0s20.882,8.322,20.868,18.559h14.572" transform="translate(75.123 75.841)" fill="#eaedde" opacity="0.6" style="mix-blend-mode:hard-light;isolation:isolate"/></g><path d="M87.511,14.07q.172-1.25-1.3-1.828l-1.352-.492-.453-.2q-2.281-1.039-2.133-2.922a3.056,3.056,0,0,1,.648-1.672A3.69,3.69,0,0,1,84.437,5.84a4.849,4.849,0,0,1,2-.371,4,4,0,0,1,1.84.461,2.962,2.962,0,0,1,1.23,1.223,3.333,3.333,0,0,1,.375,1.77l-1.477-.008a2.025,2.025,0,0,0-.469-1.621,2.1,2.1,0,0,0-1.562-.59,2.914,2.914,0,0,0-1.789.5,1.951,1.951,0,0,0-.828,1.406q-.156,1.164,1.43,1.766l1.164.414.586.25a2.941,2.941,0,0,1,2.039,3.016,3.012,3.012,0,0,1-.648,1.66A3.626,3.626,0,0,1,86.8,16.8a5.266,5.266,0,0,1-2.074.359,4.34,4.34,0,0,1-1.957-.457,3.193,3.193,0,0,1-1.348-1.23,3.078,3.078,0,0,1-.406-1.773l1.469.008a1.935,1.935,0,0,0,.551,1.613,2.479,2.479,0,0,0,1.754.613,3.131,3.131,0,0,0,1.867-.492A1.916,1.916,0,0,0,87.511,14.07Zm10.376-1.258a6.706,6.706,0,0,1-.7,2.32,3.949,3.949,0,0,1-1.336,1.543,3.058,3.058,0,0,1-1.766.488,2.815,2.815,0,0,1-2.25-.992l-.758,4.078H89.668L91.7,8.547l1.281-.008-.156.945a3.207,3.207,0,0,1,2.508-1.094,2.358,2.358,0,0,1,1.9.9,3.954,3.954,0,0,1,.719,2.391,8.412,8.412,0,0,1-.039.969ZM96.5,12.648l.039-.656a2.975,2.975,0,0,0-.434-1.746,1.524,1.524,0,0,0-1.254-.637,2.507,2.507,0,0,0-2.117,1.164l-.711,4.055a1.769,1.769,0,0,0,1.711,1.156,2.223,2.223,0,0,0,1.793-.824A4.786,4.786,0,0,0,96.5,12.648ZM104.231,17a1.893,1.893,0,0,1-.055-.445l.023-.445a3.465,3.465,0,0,1-2.469,1.047,2.526,2.526,0,0,1-1.816-.707,2.14,2.14,0,0,1-.637-1.73,2.6,2.6,0,0,1,1.176-2.1,5.005,5.005,0,0,1,2.887-.754l1.477.008.094-.672a1.545,1.545,0,0,0-.293-1.2,1.414,1.414,0,0,0-1.113-.457,2.181,2.181,0,0,0-1.285.355,1.513,1.513,0,0,0-.684.98l-1.422.008a2.266,2.266,0,0,1,.578-1.316,3.363,3.363,0,0,1,1.3-.891,4.215,4.215,0,0,1,1.648-.3,2.8,2.8,0,0,1,2.055.8,2.484,2.484,0,0,1,.617,2.043l-.687,4.188-.039.6a2.949,2.949,0,0,0,.094.852l-.016.133Zm-2.219-1.094a2.466,2.466,0,0,0,1.285-.324,3.254,3.254,0,0,0,1.043-.941l.3-1.742-1.07-.008a4.054,4.054,0,0,0-2.047.422,1.554,1.554,0,0,0-.8,1.2A1.21,1.21,0,0,0,101,15.5,1.321,1.321,0,0,0,102.013,15.906ZM85.046,35.93a7.053,7.053,0,0,1-2.809-1.363,2.6,2.6,0,0,1-.879-2,2.751,2.751,0,0,1,1.074-2.223,4.269,4.269,0,0,1,2.793-.879,4.66,4.66,0,0,1,2.09.453,3.436,3.436,0,0,1,1.422,1.25,3.2,3.2,0,0,1,.5,1.742H87.733a2.069,2.069,0,0,0-.656-1.621,2.675,2.675,0,0,0-1.852-.59,2.736,2.736,0,0,0-1.73.488,1.628,1.628,0,0,0-.621,1.355,1.465,1.465,0,0,0,.59,1.176,5.79,5.79,0,0,0,2.008.879,9.3,9.3,0,0,1,2.219.879A3.367,3.367,0,0,1,88.878,36.6a2.861,2.861,0,0,1,.387,1.508,2.658,2.658,0,0,1-1.078,2.215,4.6,4.6,0,0,1-2.883.832,5.347,5.347,0,0,1-2.187-.449,3.681,3.681,0,0,1-1.566-1.23A3,3,0,0,1,81,37.7h1.508a1.959,1.959,0,0,0,.762,1.629,3.207,3.207,0,0,0,2.035.6,2.948,2.948,0,0,0,1.82-.484,1.573,1.573,0,0,0,.633-1.32,1.545,1.545,0,0,0-.586-1.293A6.755,6.755,0,0,0,85.046,35.93Zm13.095.938a5.062,5.062,0,0,1-.883,3.109,2.829,2.829,0,0,1-2.391,1.18,3.1,3.1,0,0,1-2.422-.977v4.07H91v-11.7h1.32l.07.938a2.977,2.977,0,0,1,2.453-1.094,2.882,2.882,0,0,1,2.41,1.148,5.117,5.117,0,0,1,.887,3.2ZM96.7,36.7a3.735,3.735,0,0,0-.609-2.258,1.963,1.963,0,0,0-1.672-.828,2.125,2.125,0,0,0-1.969,1.164V38.82a2.129,2.129,0,0,0,1.984,1.156,1.954,1.954,0,0,0,1.652-.824A4.077,4.077,0,0,0,96.7,36.7Zm8.54,4.3a3.036,3.036,0,0,1-.2-.891,3.225,3.225,0,0,1-2.406,1.047,2.984,2.984,0,0,1-2.051-.707,2.288,2.288,0,0,1-.8-1.793,2.39,2.39,0,0,1,1-2.051,4.733,4.733,0,0,1,2.824-.73h1.406v-.664A1.623,1.623,0,0,0,104.556,34a1.821,1.821,0,0,0-1.336-.449,2.107,2.107,0,0,0-1.3.391,1.151,1.151,0,0,0-.523.945H99.946a2,2,0,0,1,.449-1.223,3.066,3.066,0,0,1,1.219-.934,4.1,4.1,0,0,1,1.691-.344,3.342,3.342,0,0,1,2.289.73,2.635,2.635,0,0,1,.859,2.012v3.891a4.757,4.757,0,0,0,.3,1.852V41Zm-2.4-1.1a2.54,2.54,0,0,0,1.289-.352,2.127,2.127,0,0,0,.883-.914V36.9h-1.133q-2.656,0-2.656,1.555a1.316,1.316,0,0,0,.453,1.063A1.742,1.742,0,0,0,102.837,39.9Z" transform="translate(900 1825.997)" fill="#12263f"/><g transform="translate(468 47)"><g transform="translate(360.348 1767)" fill="none" stroke="#879651" stroke-width="2"><rect width="66" height="66" rx="33" stroke="none"/><rect x="1" y="1" width="64" height="64" rx="32" fill="none"/></g><text transform="translate(382.348 1789)" fill="#7d8c48" font-size="18" font-family="Roboto-Black, Roboto" font-weight="800"><tspan x="0" y="19">11</tspan></text></g></g></svg>