<svg xmlns="http://www.w3.org/2000/svg" xmlns:xlink="http://www.w3.org/1999/xlink" width="292" height="94.399" viewBox="0 0 292 94.399"><defs><clipPath id="a"><rect width="292" height="94.399" rx="20" fill="#d5dcbd"/></clipPath></defs><g transform="translate(-186 -1694.996)"><g transform="translate(186 1694.996)" clip-path="url(#a)"><path d="M17.59,0H310.128c9.715,0,17.59,2.837,17.59,6.336V135.9c0,3.5-7.875,6.336-17.59,6.336H17.59C7.875,142.233,0,139.4,0,135.9V6.336C0,2.837,7.875,0,17.59,0Z" transform="translate(-17.86 -7.603)" fill="#eaedde"/><path d="M0,14.507H12.749c0-8,9.354-14.489,20.894-14.489S54.534,6.505,54.534,14.507h17.9v-.031C72.453,6.472,81.817-.008,93.355,0s20.882,6.505,20.868,14.507h16.718v-.031c.011-8,9.376-14.483,20.916-14.476s20.879,6.505,20.868,14.507h17.5v-.031C190.24,6.472,199.6-.008,211.142,0s20.882,6.505,20.868,14.507h18.122v-.031c.014-8,9.379-14.483,20.916-14.476s20.882,6.505,20.868,14.507h17.068c0-8,9.354-14.491,20.894-14.491S350.771,6.5,350.771,14.507h17.638v-.031c.014-8,9.376-14.483,20.916-14.476s20.879,6.505,20.868,14.507h17.7v-.031c.014-8,9.376-14.483,20.916-14.476s20.882,6.505,20.868,14.507h14.572" transform="translate(146 14.507) rotate(180)" fill="#eaedde" opacity="0.6" style="mix-blend-mode:hard-light;isolation:isolate"/><path d="M0,18.559H12.749C12.749,8.322,22.1.023,33.643.023s20.891,8.3,20.891,18.536h17.9v-.04C72.453,8.279,81.817-.01,93.355,0s20.882,8.322,20.868,18.559h16.718v-.04C130.952,8.279,140.317-.01,151.857,0s20.879,8.322,20.868,18.559h17.5v-.04C190.24,8.279,199.6-.01,211.142,0s20.882,8.322,20.868,18.559h18.122v-.04C250.146,8.279,259.511-.01,271.049,0s20.882,8.322,20.868,18.559h17.068C308.984,8.32,318.338.02,329.878.02s20.894,8.3,20.894,18.539h17.638v-.04C368.424,8.279,377.786-.01,389.326,0s20.879,8.322,20.868,18.559h17.7v-.04C427.909,8.279,437.271-.01,448.811,0s20.882,8.322,20.868,18.559h14.572" transform="translate(75.123 75.841)" fill="#eaedde" opacity="0.6" style="mix-blend-mode:hard-light;isolation:isolate"/></g><path d="M66.689,17,68.665,5.625,72,5.633a3.793,3.793,0,0,1,2.609.781,2.5,2.5,0,0,1,.758,2.18,2.957,2.957,0,0,1-2.055,2.461,2.117,2.117,0,0,1,1.145,1.016,2.839,2.839,0,0,1,.309,1.586A3.318,3.318,0,0,1,73.532,16.1a4.456,4.456,0,0,1-2.891.9Zm2.391-5.32-.711,4.094,2.32.008a2.776,2.776,0,0,0,1.781-.57,2.223,2.223,0,0,0,.836-1.539,1.827,1.827,0,0,0-.32-1.437,1.743,1.743,0,0,0-1.352-.547Zm.211-1.2,2.117.008a2.731,2.731,0,0,0,1.676-.508,1.989,1.989,0,0,0,.8-1.4,1.426,1.426,0,0,0-.324-1.25,2.078,2.078,0,0,0-1.41-.461l-2.234-.008ZM81.424,17a1.893,1.893,0,0,1-.055-.445l.023-.445a3.465,3.465,0,0,1-2.469,1.047,2.526,2.526,0,0,1-1.816-.707,2.14,2.14,0,0,1-.637-1.73,2.6,2.6,0,0,1,1.176-2.1,5.005,5.005,0,0,1,2.887-.754l1.477.008L82.1,11.2a1.545,1.545,0,0,0-.293-1.2A1.414,1.414,0,0,0,80.7,9.547a2.181,2.181,0,0,0-1.285.355,1.513,1.513,0,0,0-.684.98l-1.422.008a2.266,2.266,0,0,1,.578-1.316,3.363,3.363,0,0,1,1.3-.891,4.215,4.215,0,0,1,1.648-.3,2.8,2.8,0,0,1,2.055.8,2.484,2.484,0,0,1,.617,2.043l-.687,4.188-.039.6a2.949,2.949,0,0,0,.094.852L82.861,17Zm-2.219-1.094a2.466,2.466,0,0,0,1.285-.324,3.254,3.254,0,0,0,1.043-.941l.3-1.742-1.07-.008a4.054,4.054,0,0,0-2.047.422,1.554,1.554,0,0,0-.8,1.2,1.21,1.21,0,0,0,.277.988A1.321,1.321,0,0,0,79.205,15.906ZM86.347,17H84.94L87.019,5h1.414Zm5.923-1.016a2.145,2.145,0,0,0,1.367-.441,2.1,2.1,0,0,0,.8-1.2l1.336-.008a3.014,3.014,0,0,1-.637,1.453,3.68,3.68,0,0,1-2.926,1.367,3.017,3.017,0,0,1-1.785-.551,3.084,3.084,0,0,1-1.074-1.492,4.972,4.972,0,0,1-.234-2.152l.039-.391a5.605,5.605,0,0,1,.711-2.18,4.11,4.11,0,0,1,1.469-1.5,3.648,3.648,0,0,1,2-.5,2.857,2.857,0,0,1,2.125.891,3.08,3.08,0,0,1,.8,2.18l-1.32-.008a2.029,2.029,0,0,0-.461-1.34,1.607,1.607,0,0,0-1.2-.543,2.254,2.254,0,0,0-1.832.82,4.3,4.3,0,0,0-.91,2.359l-.023.2a6.776,6.776,0,0,0-.016,1.031A2.355,2.355,0,0,0,91,15.43,1.656,1.656,0,0,0,92.27,15.984Zm9.368-7.594a3.047,3.047,0,0,1,1.82.578,3.285,3.285,0,0,1,1.121,1.551,4.8,4.8,0,0,1,.246,2.16l-.016.172a5.685,5.685,0,0,1-.734,2.23,4.309,4.309,0,0,1-1.516,1.551,3.7,3.7,0,0,1-2.039.523,3.052,3.052,0,0,1-1.816-.578,3.21,3.21,0,0,1-1.113-1.531,4.931,4.931,0,0,1-.25-2.133,5.76,5.76,0,0,1,.711-2.359,4.409,4.409,0,0,1,1.527-1.621A3.652,3.652,0,0,1,101.638,8.391Zm-2.875,4.531a4.8,4.8,0,0,0,0,1.023,2.507,2.507,0,0,0,.551,1.469,1.653,1.653,0,0,0,1.262.57,2.253,2.253,0,0,0,1.3-.348,2.919,2.919,0,0,0,1-1.121,4.721,4.721,0,0,0,.523-1.664,7.5,7.5,0,0,0,.023-1.211,2.6,2.6,0,0,0-.57-1.492,1.69,1.69,0,0,0-1.266-.578,2.3,2.3,0,0,0-1.859.859,4.245,4.245,0,0,0-.945,2.313Zm9.954-4.383-.2,1.07a3.333,3.333,0,0,1,2.594-1.219,2.1,2.1,0,0,1,1.766.828,3.217,3.217,0,0,1,.422,2.242L112.373,17h-1.414l.93-5.562a2.968,2.968,0,0,0,.008-.711,1.168,1.168,0,0,0-1.289-1.117,2.661,2.661,0,0,0-2.234,1.359L107.326,17h-1.414l1.469-8.453Zm8.907,6.328,3.008-6.32h1.563l-5.016,9.859q-1.047,2.055-2.687,2.031a4.6,4.6,0,0,1-.852-.141l.125-1.172.367.039a1.853,1.853,0,0,0,1.16-.3,2.772,2.772,0,0,0,.863-1.074l.508-.969L115.2,8.547h1.477ZM70.783,41V29.625H74.5a4.317,4.317,0,0,1,2.785.766,2.759,2.759,0,0,1,.934,2.266,2.31,2.31,0,0,1-.453,1.41,2.937,2.937,0,0,1-1.234.949A2.638,2.638,0,0,1,77.99,36a2.814,2.814,0,0,1,.535,1.723,3.042,3.042,0,0,1-.992,2.406,4.1,4.1,0,0,1-2.8.875Zm1.5-5.32v4.094h2.477a2.385,2.385,0,0,0,1.652-.543,1.907,1.907,0,0,0,.605-1.5q0-2.055-2.234-2.055Zm0-1.2h2.266a2.378,2.378,0,0,0,1.574-.492,1.649,1.649,0,0,0,.59-1.336,1.621,1.621,0,0,0-.547-1.363,2.69,2.69,0,0,0-1.664-.426H72.283ZM85.776,41a3.036,3.036,0,0,1-.2-.891,3.225,3.225,0,0,1-2.406,1.047,2.984,2.984,0,0,1-2.051-.707,2.288,2.288,0,0,1-.8-1.793,2.39,2.39,0,0,1,1-2.051,4.733,4.733,0,0,1,2.824-.73h1.406v-.664A1.623,1.623,0,0,0,85.1,34a1.821,1.821,0,0,0-1.336-.449,2.107,2.107,0,0,0-1.3.391,1.151,1.151,0,0,0-.523.945H80.487a2,2,0,0,1,.449-1.223,3.066,3.066,0,0,1,1.219-.934,4.1,4.1,0,0,1,1.691-.344,3.342,3.342,0,0,1,2.289.73,2.635,2.635,0,0,1,.859,2.012v3.891a4.757,4.757,0,0,0,.3,1.852V41Zm-2.4-1.1a2.54,2.54,0,0,0,1.289-.352,2.127,2.127,0,0,0,.883-.914V36.9H84.417q-2.656,0-2.656,1.555a1.316,1.316,0,0,0,.453,1.063A1.742,1.742,0,0,0,83.378,39.9ZM90.871,41H89.425V29h1.445Zm5.743-1.023a2.082,2.082,0,0,0,1.352-.469,1.649,1.649,0,0,0,.641-1.172h1.367a2.621,2.621,0,0,1-.5,1.383,3.293,3.293,0,0,1-1.23,1.047,3.55,3.55,0,0,1-1.629.391A3.482,3.482,0,0,1,93.868,40a4.59,4.59,0,0,1-1.02-3.152v-.242a5.089,5.089,0,0,1,.453-2.2,3.451,3.451,0,0,1,1.3-1.492,3.7,3.7,0,0,1,2-.531,3.39,3.39,0,0,1,2.363.852,3.043,3.043,0,0,1,1,2.211H98.606a1.992,1.992,0,0,0-.621-1.348,1.932,1.932,0,0,0-1.379-.527,2.023,2.023,0,0,0-1.707.793,3.724,3.724,0,0,0-.605,2.293v.273a3.65,3.65,0,0,0,.6,2.25A2.033,2.033,0,0,0,96.614,39.977Zm4.642-3.281a4.993,4.993,0,0,1,.488-2.234A3.643,3.643,0,0,1,103.1,32.93a3.7,3.7,0,0,1,1.988-.539,3.565,3.565,0,0,1,2.793,1.2,4.6,4.6,0,0,1,1.066,3.18v.1a5.036,5.036,0,0,1-.473,2.215,3.589,3.589,0,0,1-1.352,1.527,3.743,3.743,0,0,1-2.02.547,3.556,3.556,0,0,1-2.785-1.2,4.575,4.575,0,0,1-1.066-3.164Zm1.453.172a3.616,3.616,0,0,0,.652,2.258,2.211,2.211,0,0,0,3.5-.012,3.955,3.955,0,0,0,.648-2.418,3.61,3.61,0,0,0-.66-2.254,2.1,2.1,0,0,0-1.754-.863,2.075,2.075,0,0,0-1.727.852A3.925,3.925,0,0,0,102.708,36.867Zm3.156-5.57h-1.242L102.607,29h1.742Zm6.306,1.25.047,1.063a3.08,3.08,0,0,1,2.531-1.219q2.68,0,2.7,3.023V41h-1.445V35.406a1.946,1.946,0,0,0-.418-1.352,1.675,1.675,0,0,0-1.277-.437,2.086,2.086,0,0,0-1.234.375,2.546,2.546,0,0,0-.828.984V41H110.8V32.547Z" transform="translate(276 1720.996)" fill="#12263f"/><g transform="translate(-156 -58)"><g transform="translate(360 1766.996)" fill="none" stroke="#879651" stroke-width="2"><rect width="66" height="66" rx="33" stroke="none"/><rect x="1" y="1" width="64" height="64" rx="32" fill="none"/></g><text transform="translate(388.348 1788)" fill="#7d8c48" font-size="18" font-family="Roboto-Black, Roboto" font-weight="800"><tspan x="0" y="19">5</tspan></text></g></g></svg>