<svg xmlns="http://www.w3.org/2000/svg" width="57.027" height="64.031" viewBox="0 0 57.027 64.031"><g transform="translate(-34.616 -7)"><path d="M43.83,100.288H35.68a.564.564,0,0,1-.564-.564V61.4a.564.564,0,0,1,.564-.564h54.9a.564.564,0,0,1,.564.564V99.725a.564.564,0,0,1-.564.564H82.345" transform="translate(0 -46.569)" fill="none" stroke="#7d8c48" stroke-linecap="round" stroke-linejoin="round" stroke-miterlimit="10" stroke-width="1"/><path d="M435.874,29.722h2.552a1.127,1.127,0,0,1,1.127,1.127v2.706" transform="translate(-349.933 -19.404)" fill="none" stroke="#7d8c48" stroke-linecap="round" stroke-linejoin="round" stroke-miterlimit="10" stroke-width="1"/><line x2="5.094" transform="translate(77.384 10.318)" fill="none" stroke="#7d8c48" stroke-linecap="round" stroke-linejoin="round" stroke-miterlimit="10" stroke-width="1"/><line x2="5.219" transform="translate(68.691 10.318)" fill="none" stroke="#7d8c48" stroke-linecap="round" stroke-linejoin="round" stroke-miterlimit="10" stroke-width="1"/><line x2="5.21" transform="translate(60.018 10.318)" fill="none" stroke="#7d8c48" stroke-linecap="round" stroke-linejoin="round" stroke-miterlimit="10" stroke-width="1"/><line x2="5.21" transform="translate(51.345 10.318)" fill="none" stroke="#7d8c48" stroke-linecap="round" stroke-linejoin="round" stroke-miterlimit="10" stroke-width="1"/><line x2="4.078" transform="translate(43.785 10.318)" fill="none" stroke="#7d8c48" stroke-linecap="round" stroke-linejoin="round" stroke-miterlimit="10" stroke-width="1"/><path d="M47.115,33.555V30.849a1.127,1.127,0,0,1,1.127-1.127H50.79" transform="translate(-10.477 -19.404)" fill="none" stroke="#7d8c48" stroke-linecap="round" stroke-linejoin="round" stroke-miterlimit="10" stroke-width="1"/><path d="M272.889,13.892v-4.7A1.691,1.691,0,0,1,274.58,7.5h0a1.691,1.691,0,0,1,1.691,1.691v4.7" transform="translate(-207.618 0)" fill="none" stroke="#7d8c48" stroke-linecap="round" stroke-linejoin="round" stroke-miterlimit="10" stroke-width="1"/><path d="M341.332,13.892v-4.7A1.691,1.691,0,0,1,343.023,7.5h0a1.691,1.691,0,0,1,1.691,1.691v4.7" transform="translate(-267.381)" fill="none" stroke="#7d8c48" stroke-linecap="round" stroke-linejoin="round" stroke-miterlimit="10" stroke-width="1"/><path d="M408.886,13.892v-4.7A1.691,1.691,0,0,1,410.577,7.5h0a1.691,1.691,0,0,1,1.691,1.691v4.7" transform="translate(-326.367 0)" fill="none" stroke="#7d8c48" stroke-linecap="round" stroke-linejoin="round" stroke-miterlimit="10" stroke-width="1"/><path d="M204.445,13.892v-4.7A1.691,1.691,0,0,1,206.136,7.5h0a1.691,1.691,0,0,1,1.691,1.691v4.7" transform="translate(-147.854)" fill="none" stroke="#7d8c48" stroke-linecap="round" stroke-linejoin="round" stroke-miterlimit="10" stroke-width="1"/><path d="M136,13.892v-4.7A1.691,1.691,0,0,1,137.693,7.5h0a1.691,1.691,0,0,1,1.691,1.691V13.78" transform="translate(-88.091)" fill="none" stroke="#7d8c48" stroke-linecap="round" stroke-linejoin="round" stroke-miterlimit="10" stroke-width="1"/><path d="M76.448,13.78V9.191A1.691,1.691,0,0,1,78.139,7.5h0A1.691,1.691,0,0,1,79.83,9.191v4.7" transform="translate(-36.09 0)" fill="none" stroke="#7d8c48" stroke-linecap="round" stroke-linejoin="round" stroke-miterlimit="10" stroke-width="1"/><line x1="39.265" transform="translate(51.822 20.012)" fill="none" stroke="#7d8c48" stroke-linecap="round" stroke-linejoin="round" stroke-miterlimit="10" stroke-width="1"/><line x1="12.211" transform="translate(35.172 20.012)" fill="none" stroke="#7d8c48" stroke-linecap="round" stroke-linejoin="round" stroke-miterlimit="10" stroke-width="1"/><line x1="7.277" transform="translate(68.502 25.719)" fill="none" stroke="#7d8c48" stroke-linecap="round" stroke-linejoin="round" stroke-miterlimit="10" stroke-width="1"/><path d="M390.74,151.16h6.176v23.308H392.71" transform="translate(-310.523 -125.441)" fill="none" stroke="#7d8c48" stroke-linecap="round" stroke-linejoin="round" stroke-miterlimit="10" stroke-width="1"/><path d="M72.56,162.237V151.16H90.612" transform="translate(-32.695 -125.441)" fill="none" stroke="#7d8c48" stroke-linecap="round" stroke-linejoin="round" stroke-miterlimit="10" stroke-width="1"/><path d="M72.56,273.5v7.792h4.207" transform="translate(-32.695 -232.265)" fill="none" stroke="#7d8c48" stroke-linecap="round" stroke-linejoin="round" stroke-miterlimit="10" stroke-width="1"/><line y2="3.602" transform="translate(65.333 28.58)" fill="none" stroke="#7d8c48" stroke-linecap="round" stroke-linejoin="round" stroke-miterlimit="10" stroke-width="1"/><line y1="3.686" transform="translate(60.925 28.58)" fill="none" stroke="#7d8c48" stroke-linecap="round" stroke-linejoin="round" stroke-miterlimit="10" stroke-width="1"/><path d="M226.525,142.678h-8.709a.559.559,0,0,1-.559-.559v-3.156a.559.559,0,0,1,.559-.559h8.709a.559.559,0,0,1,.559.559v3.156A.559.559,0,0,1,226.525,142.678Z" transform="translate(-159.041 -114.302)" fill="none" stroke="#7d8c48" stroke-linecap="round" stroke-linejoin="round" stroke-miterlimit="10" stroke-width="1"/><path d="M134.38,206.645l-1.567-2.714a1.115,1.115,0,0,1,.408-1.523l2.863-1.653a1.115,1.115,0,0,1,1.523.408l1.191,2.062" transform="translate(-85.176 -168.614)" fill="none" stroke="#7d8c48" stroke-linecap="round" stroke-linejoin="round" stroke-miterlimit="10" stroke-width="1"/><path d="M335.108,206.645l1.567-2.714a1.115,1.115,0,0,0-.408-1.523l-2.863-1.653a1.115,1.115,0,0,0-1.523.408l-1.23,2.131" transform="translate(-258.053 -168.614)" fill="none" stroke="#7d8c48" stroke-linecap="round" stroke-linejoin="round" stroke-miterlimit="10" stroke-width="1"/><path d="M139.534,235.084a19.059,19.059,0,1,0-3.2,3.088" transform="translate(-61.658 -171.536)" fill="none" stroke="#7d8c48" stroke-linecap="round" stroke-linejoin="round" stroke-miterlimit="10" stroke-width="1"/><circle cx="13.925" cy="13.925" r="13.925" transform="translate(49.204 37.548)" fill="none" stroke="#7d8c48" stroke-linecap="round" stroke-linejoin="round" stroke-miterlimit="10" stroke-width="1"/><line x1="1.152" y2="0.665" transform="translate(73.659 44.729)" fill="none" stroke="#7d8c48" stroke-linecap="round" stroke-linejoin="round" stroke-miterlimit="10" stroke-width="1"/><line x1="0.665" y2="1.152" transform="translate(69.208 39.791)" fill="none" stroke="#7d8c48" stroke-linecap="round" stroke-linejoin="round" stroke-miterlimit="10" stroke-width="1"/><line x2="0.665" y2="1.152" transform="translate(56.385 39.791)" fill="none" stroke="#7d8c48" stroke-linecap="round" stroke-linejoin="round" stroke-miterlimit="10" stroke-width="1"/><line x2="1.152" y2="0.665" transform="translate(51.448 44.729)" fill="none" stroke="#7d8c48" stroke-linecap="round" stroke-linejoin="round" stroke-miterlimit="10" stroke-width="1"/><line y1="0.665" x2="1.152" transform="translate(51.448 57.552)" fill="none" stroke="#7d8c48" stroke-linecap="round" stroke-linejoin="round" stroke-miterlimit="10" stroke-width="1"/><line y1="1.152" x2="0.665" transform="translate(56.385 62.002)" fill="none" stroke="#7d8c48" stroke-linecap="round" stroke-linejoin="round" stroke-miterlimit="10" stroke-width="1"/><line x1="0.665" y1="1.152" transform="translate(69.208 62.002)" fill="none" stroke="#7d8c48" stroke-linecap="round" stroke-linejoin="round" stroke-miterlimit="10" stroke-width="1"/><line y2="1.331" transform="translate(63.129 37.984)" fill="none" stroke="#7d8c48" stroke-linecap="round" stroke-linejoin="round" stroke-miterlimit="10" stroke-width="1"/><line x2="1.331" transform="translate(49.64 51.473)" fill="none" stroke="#7d8c48" stroke-linecap="round" stroke-linejoin="round" stroke-miterlimit="10" stroke-width="1"/><line y1="1.331" transform="translate(63.129 63.631)" fill="none" stroke="#7d8c48" stroke-linecap="round" stroke-linejoin="round" stroke-miterlimit="10" stroke-width="1"/><line x1="1.331" transform="translate(75.287 51.473)" fill="none" stroke="#7d8c48" stroke-linecap="round" stroke-linejoin="round" stroke-miterlimit="10" stroke-width="1"/><line x1="1.152" y1="0.665" transform="translate(73.659 57.552)" fill="none" stroke="#7d8c48" stroke-linecap="round" stroke-linejoin="round" stroke-miterlimit="10" stroke-width="1"/><path d="M191.923,334.589l-3.337-3.337,3.337-3.337" transform="translate(-134.006 -279.78)" fill="none" stroke="#7d8c48" stroke-linecap="round" stroke-linejoin="round" stroke-miterlimit="10" stroke-width="1"/><path d="M297.1,334.589l3.337-3.337-3.337-3.337" transform="translate(-228.762 -279.78)" fill="none" stroke="#7d8c48" stroke-linecap="round" stroke-linejoin="round" stroke-miterlimit="10" stroke-width="1"/><line y1="8.311" x2="3.001" transform="translate(61.629 47.317)" fill="none" stroke="#7d8c48" stroke-linecap="round" stroke-linejoin="round" stroke-miterlimit="10" stroke-width="1"/></g></svg>