<svg xmlns="http://www.w3.org/2000/svg" xmlns:xlink="http://www.w3.org/1999/xlink" width="103" height="103" viewBox="0 0 103 103"><defs><filter id="a" x="0" y="0" width="103" height="103" filterUnits="userSpaceOnUse"><feOffset dy="3" input="SourceAlpha"/><feGaussianBlur stdDeviation="3" result="b"/><feFlood flood-opacity="0.161"/><feComposite operator="in" in2="b"/><feComposite in="SourceGraphic"/></filter><clipPath id="c"><path d="M0-682.664H57v57H0Z" transform="translate(0 682.664)" fill="#7d8c48"/></clipPath></defs><g transform="translate(-1078 -1857.248)"><g transform="matrix(1, 0, 0, 1, 1078, 1857.25)" filter="url(#a)"><circle cx="42.5" cy="42.5" r="42.5" transform="translate(9 6)" fill="#f7faef"/></g><g transform="translate(1101 1878.171)"><g transform="translate(0 0.002)"><g clip-path="url(#c)"><g transform="translate(34.967 27.192)"><path d="M-66.9,0a6.1,6.1,0,0,0-1.613.217V3.509a.607.607,0,0,1-1.076.384l-1.675-2.05A6.073,6.073,0,0,0-73,6.1v8.6a.808.808,0,0,0,.808.808H-69.4v-.749h0a4.339,4.339,0,0,1-1.925-3.609V9.53a.4.4,0,0,1,.264-.379A13.7,13.7,0,0,0-65.992,5.44a.4.4,0,0,1,.594-.015,6.274,6.274,0,0,0,2.63,1.655.4.4,0,0,1,.287.387V7.88a2.029,2.029,0,0,1,1.675.619V6.1A6.1,6.1,0,0,0-66.9,0Z" transform="translate(72.997 0)" fill="none" stroke="#7d8c48" stroke-linecap="round" stroke-linejoin="round" stroke-miterlimit="10" stroke-width="1"/></g><g transform="translate(43.552 37.835)"><path d="M-21.161-6.786a4.357,4.357,0,0,1-1.928,3.5v.74h2.8a.808.808,0,0,0,.808-.808V-7.4A2.028,2.028,0,0,1-21.161-6.786Z" transform="translate(23.089 7.404)" fill="none" stroke="#7d8c48" stroke-linecap="round" stroke-linejoin="round" stroke-miterlimit="10" stroke-width="1"/></g><g transform="translate(36.641 32.494)"><path d="M-93.9-19.518a6.273,6.273,0,0,1-2.63-1.655.4.4,0,0,0-.594.015,13.7,13.7,0,0,1-5.067,3.711.4.4,0,0,0-.264.379v1.612A4.362,4.362,0,0,0-97.969-11.1a4.362,4.362,0,0,0,4.357-4.358v-3.676A.4.4,0,0,0-93.9-19.518Z" transform="translate(102.453 21.296)" fill="none" stroke="#7d8c48" stroke-linecap="round" stroke-linejoin="round" stroke-miterlimit="10" stroke-width="1"/></g><g transform="translate(45.48 35.061)"><path d="M-.033-.114V3.149c0,.04,0,.079,0,.118A1.863,1.863,0,0,0,2.082,1.576,1.863,1.863,0,0,0-.033-.114Z" transform="translate(0.036 0.125)" fill="none" stroke="#7d8c48" stroke-linecap="round" stroke-linejoin="round" stroke-miterlimit="10" stroke-width="1"/></g><g transform="translate(11.436 32.369)"><path d="M-81.056-1.423a.406.406,0,0,0-.52-.063A10.68,10.68,0,0,1-88.005.241a.407.407,0,0,0-.436.405V4.21a4.388,4.388,0,0,0,4.51,4.383A4.388,4.388,0,0,0-79.548,4.21V.358C-79.548.145-79.539.208-81.056-1.423Z" transform="translate(88.441 1.552)" fill="none" stroke="#7d8c48" stroke-linecap="round" stroke-linejoin="round" stroke-miterlimit="10" stroke-width="1"/></g><g transform="translate(9.917 27.192)"><path d="M-16.68-84.063v-.283a.407.407,0,0,1,.436-.405,10.68,10.68,0,0,0,6.429-1.727.406.406,0,0,1,.52.063c1.517,1.631,1.508,1.568,1.508,1.781v.566a2.053,2.053,0,0,1,1.519.532v-2.219a5.966,5.966,0,0,0-5.966-5.966A5.966,5.966,0,0,0-18.2-85.755v2.267A2.224,2.224,0,0,1-16.68-84.063Z" transform="translate(18.2 91.721)" fill="none" stroke="#7d8c48" stroke-linecap="round" stroke-linejoin="round" stroke-miterlimit="10" stroke-width="1"/></g><g transform="translate(20.326 34.841)"><path d="M-.034-.047V3.239c0,.042,0,.082,0,.124A1.869,1.869,0,0,0,2.025,1.658,1.868,1.868,0,0,0-.034-.047Z" transform="translate(0.037 0.052)" fill="none" stroke="#7d8c48" stroke-linecap="round" stroke-linejoin="round" stroke-miterlimit="10" stroke-width="1"/></g><g transform="translate(9.377 34.849)"><path d="M-22.607-36.022V-39.3a1.956,1.956,0,0,0-2.06,1.7A1.869,1.869,0,0,0-22.6-35.9C-22.6-35.939-22.607-35.981-22.607-36.022Z" transform="translate(24.667 39.304)" fill="none" stroke="#7d8c48" stroke-linecap="round" stroke-linejoin="round" stroke-miterlimit="10" stroke-width="1"/></g><g transform="translate(11.813 41.741)"><path d="M-76.239-24.358a.516.516,0,0,1-.33-.482v-1.738a4.357,4.357,0,0,1-2.482.773,4.6,4.6,0,0,1-2.5-.707v1.672a.516.516,0,0,1-.33.482l-1.3.5c.528.584,1.108,1.219,1.66,1.82a3.274,3.274,0,0,0,4.819,0c.563-.612,1.153-1.258,1.688-1.85Z" transform="translate(83.185 26.577)" fill="none" stroke="#7d8c48" stroke-linecap="round" stroke-linejoin="round" stroke-miterlimit="10" stroke-width="1"/></g><g transform="translate(4.415 41.741)"><path d="M-226.2-50.989l-6.265-2.426a.516.516,0,0,1-.33-.482v-1.738a4.358,4.358,0,0,1-2.482.773,4.6,4.6,0,0,1-2.5-.707V-53.9a.517.517,0,0,1-.33.482l-6.258,2.426a4.179,4.179,0,0,0-2.439,3.783v4.632a1.363,1.363,0,0,0,1.363,1.363h20.322a1.363,1.363,0,0,0,1.363-1.363v-4.632A4.179,4.179,0,0,0-226.2-50.989Z" transform="translate(246.81 55.635)" fill="none" stroke="#7d8c48" stroke-linecap="round" stroke-linejoin="round" stroke-miterlimit="10" stroke-width="1"/></g><g transform="translate(36.936 41.943)"><path d="M-72.616-16.846v-1.526a4.332,4.332,0,0,1-2.427.74,4.564,4.564,0,0,1-2.559-.749v1.535a.516.516,0,0,1-.33.482l-1.3.5c.528.584,1.108,1.219,1.66,1.82a3.274,3.274,0,0,0,4.819,0c.562-.612,1.153-1.258,1.688-1.85l-1.222-.473A.517.517,0,0,1-72.616-16.846Z" transform="translate(79.232 18.381)" fill="none" stroke="#7d8c48" stroke-linecap="round" stroke-linejoin="round" stroke-miterlimit="10" stroke-width="1"/></g><g transform="translate(16.635 10.98)"><path d="M-33.18-16.59a1.511,1.511,0,0,1-1.511,1.511A1.511,1.511,0,0,1-36.2-16.59,1.511,1.511,0,0,1-34.691-18.1,1.511,1.511,0,0,1-33.18-16.59Z" transform="translate(36.203 18.101)" fill="none" stroke="#7d8c48" stroke-linecap="round" stroke-linejoin="round" stroke-miterlimit="10" stroke-width="1"/></g><g transform="translate(23.038 10.98)"><path d="M-33.18-16.59a1.511,1.511,0,0,1-1.511,1.511A1.511,1.511,0,0,1-36.2-16.59,1.511,1.511,0,0,1-34.691-18.1,1.511,1.511,0,0,1-33.18-16.59Z" transform="translate(36.203 18.101)" fill="none" stroke="#7d8c48" stroke-linecap="round" stroke-linejoin="round" stroke-miterlimit="10" stroke-width="1"/></g><g transform="translate(29.442 10.98)"><path d="M-33.179-16.59a1.511,1.511,0,0,1-1.511,1.511A1.511,1.511,0,0,1-36.2-16.59,1.511,1.511,0,0,1-34.69-18.1,1.511,1.511,0,0,1-33.179-16.59Z" transform="translate(36.201 18.101)" fill="none" stroke="#7d8c48" stroke-linecap="round" stroke-linejoin="round" stroke-miterlimit="10" stroke-width="1"/></g><g transform="translate(35.845 10.98)"><path d="M-33.18-16.59a1.511,1.511,0,0,1-1.511,1.511A1.511,1.511,0,0,1-36.2-16.59,1.511,1.511,0,0,1-34.691-18.1,1.511,1.511,0,0,1-33.18-16.59Z" transform="translate(36.203 18.101)" fill="none" stroke="#7d8c48" stroke-linecap="round" stroke-linejoin="round" stroke-miterlimit="10" stroke-width="1"/></g><g transform="translate(29.538 41.943)"><path d="M-151.223-156.093h7.907a1.363,1.363,0,0,0,1.363-1.363v-4.632a4.179,4.179,0,0,0-2.439-3.783l-6.265-2.426a.516.516,0,0,1-.33-.482v-1.526a4.333,4.333,0,0,1-2.427.74,4.563,4.563,0,0,1-2.559-.749v1.535a.517.517,0,0,1-.33.482l-6.258,2.426A4.179,4.179,0,0,0-165-162.088v4.632a1.363,1.363,0,0,0,1.363,1.363h8.518" transform="translate(165 170.314)" fill="none" stroke="#7d8c48" stroke-linecap="round" stroke-linejoin="round" stroke-miterlimit="10" stroke-width="1"/></g><g transform="translate(10.464 0.837)"><path d="M-395.96-106.541v-7.034a2.68,2.68,0,0,0-2.672-2.672h-30.73a2.68,2.68,0,0,0-2.672,2.672V-95.3a2.68,2.68,0,0,0,2.672,2.672h18.945a1.85,1.85,0,0,1,1.432.679l4.86,5.946a.607.607,0,0,0,1.076-.384v-5.45a.792.792,0,0,1,.792-.792h3.625A2.68,2.68,0,0,0-395.96-95.3v-7.347" transform="translate(432.034 116.248)" fill="none" stroke="#7d8c48" stroke-linecap="round" stroke-linejoin="round" stroke-miterlimit="10" stroke-width="1"/></g></g></g></g></g></svg>