<svg xmlns="http://www.w3.org/2000/svg" xmlns:xlink="http://www.w3.org/1999/xlink" width="103" height="103" viewBox="0 0 103 103"><defs><filter id="a" x="0" y="0" width="103" height="103" filterUnits="userSpaceOnUse"><feOffset dy="3" input="SourceAlpha"/><feGaussianBlur stdDeviation="3" result="b"/><feFlood flood-opacity="0.161"/><feComposite operator="in" in2="b"/><feComposite in="SourceGraphic"/></filter></defs><g transform="translate(-905.023 -2101)"><g transform="matrix(1, 0, 0, 1, 905.02, 2101)" filter="url(#a)"><circle cx="42.5" cy="42.5" r="42.5" transform="translate(9 6)" fill="#f7faef"/></g><g transform="translate(933.023 2124.841)"><g transform="translate(0 1.159)"><path d="M45,88.3a.687.687,0,0,0,.687-.687V84.929a3.224,3.224,0,0,0,1.391-2.651V80.251a1.7,1.7,0,0,0-.205-.808L40.987,68.615a2.544,2.544,0,0,0-2.237-1.33H30.891a.687.687,0,0,0,0,1.373H38.75a1.171,1.171,0,0,1,1.03.613l1.026,1.889H30.192a.687.687,0,1,0,0,1.373h11.36l1.467,2.7H4.093l1.488-2.7H16.913a.687.687,0,1,0,0-1.373H6.337l1.044-1.895a1.172,1.172,0,0,1,1.027-.607h7.774a.687.687,0,0,0,0-1.373H8.408A2.545,2.545,0,0,0,6.178,68.6L.21,79.437a1.7,1.7,0,0,0-.21.817v2.024a3.224,3.224,0,0,0,1.391,2.651V98.146a1.3,1.3,0,0,0-.617,1.106v4.664c0,.034,0,.067.005.1A1.462,1.462,0,0,0,0,105.307v1.325a1.462,1.462,0,0,0,1.461,1.461H45.613a1.462,1.462,0,0,0,1.461-1.461v-1.325a1.461,1.461,0,0,0-.779-1.291c0-.033.005-.066.005-.1V99.252a1.3,1.3,0,0,0-.617-1.106V90.539a.687.687,0,1,0-1.373,0v7.409H42.494V93.355a1.305,1.305,0,0,0-1.3-1.3H36.277a1.305,1.305,0,0,0-1.3,1.3v4.594H33.936a1.3,1.3,0,0,0-1.3,1.3v4.594H28.579V99.77a5.042,5.042,0,1,0-10.084,0v4.076H14.442V99.252a1.3,1.3,0,0,0-1.3-1.3H12.1V93.355a1.305,1.305,0,0,0-1.3-1.3H5.884a1.305,1.305,0,0,0-1.3,1.3v4.594H2.764V85.47a3.216,3.216,0,0,0,3-1.206,3.22,3.22,0,0,0,5.078,0,3.22,3.22,0,0,0,5.078,0,3.22,3.22,0,0,0,5.078,0,3.22,3.22,0,0,0,5.078,0,3.22,3.22,0,0,0,5.078,0,3.22,3.22,0,0,0,5.078,0,3.22,3.22,0,0,0,5.078,0,3.216,3.216,0,0,0,3,1.206v2.143A.687.687,0,0,0,45,88.3ZM6.921,99.322v4.524H2.147V99.322ZM45.7,106.631a.087.087,0,0,1-.087.087H1.461a.087.087,0,0,1-.087-.087v-1.325a.087.087,0,0,1,.087-.087H45.613a.087.087,0,0,1,.087.087Zm-5.548-7.309h4.774v4.524H40.152Zm-3.806-5.9H41.12v4.524H36.347Zm-2.341,5.9h4.774v4.524H34.005Zm-14.137.448a3.668,3.668,0,1,1,7.337,0v4.076H19.868V99.77Zm-6.8,4.076H8.294V99.322h4.774ZM5.953,93.425h4.774v4.524H5.953ZM43.765,76.607l1.467,2.7H1.849l1.488-2.7ZM3.226,84.13a1.854,1.854,0,0,1-1.852-1.852v-1.6h3.7v1.6A1.854,1.854,0,0,1,3.226,84.13Zm5.078,0a1.854,1.854,0,0,1-1.852-1.852v-1.6h3.7v1.6A1.854,1.854,0,0,1,8.3,84.13Zm5.078,0a1.854,1.854,0,0,1-1.852-1.852v-1.6h3.7v1.6A1.854,1.854,0,0,1,13.381,84.13Zm5.078,0a1.854,1.854,0,0,1-1.852-1.852v-1.6h3.7v1.6A1.854,1.854,0,0,1,18.459,84.13Zm5.078,0a1.854,1.854,0,0,1-1.852-1.852v-1.6h3.7v1.6A1.854,1.854,0,0,1,23.537,84.13Zm5.078,0a1.854,1.854,0,0,1-1.852-1.852v-1.6h3.7v1.6A1.854,1.854,0,0,1,28.615,84.13Zm5.078,0a1.854,1.854,0,0,1-1.852-1.852v-1.6h3.7v1.6A1.854,1.854,0,0,1,33.692,84.13Zm5.078,0a1.854,1.854,0,0,1-1.852-1.852v-1.6h3.7v1.6A1.854,1.854,0,0,1,38.77,84.13ZM42,82.278v-1.6h3.7v1.6a1.852,1.852,0,0,1-3.7,0Z" transform="translate(0 -61.23)" fill="#7d8c48"/><path d="M229.34,429.988a.687.687,0,0,0-.687.687v.332a.687.687,0,0,0,1.373,0v-.332A.687.687,0,0,0,229.34,429.988Z" transform="translate(-207.717 -390.724)" fill="#7d8c48"/><path d="M201.479,11.645l.8,1.008a1.376,1.376,0,0,0,1.083.523h0a1.375,1.375,0,0,0,1.083-.523l.8-1.008a5.413,5.413,0,0,0,3.287-6.675.687.687,0,1,0-1.312.406,4.04,4.04,0,0,1-2.6,5.034.687.687,0,0,0-.325.226L203.37,11.8a.01.01,0,0,1-.015,0l-.924-1.164a.686.686,0,0,0-.325-.226,4.039,4.039,0,0,1,1.063-7.873,4,4,0,0,1,2.606.8.687.687,0,1,0,.822-1.1,5.412,5.412,0,1,0-5.118,9.412Z" transform="translate(-179.826 -1.159)" fill="#7d8c48"/><path d="M230.046,30.529a2.723,2.723,0,1,0,2.723,2.723A2.726,2.726,0,0,0,230.046,30.529Zm0,4.072a1.35,1.35,0,1,1,1.35-1.35A1.351,1.351,0,0,1,230.046,34.6Z" transform="translate(-206.509 -27.84)" fill="#7d8c48"/></g><path d="M195.5,285.327H186a1.932,1.932,0,0,1-1.93-1.93v-2.646a1.932,1.932,0,0,1,1.93-1.93h1.827a.687.687,0,0,1,0,1.373H186a.557.557,0,0,0-.557.557V283.4a.557.557,0,0,0,.557.557H195.5a.557.557,0,0,0,.557-.557v-2.646a.557.557,0,0,0-.557-.557h-4.753a.687.687,0,0,1,0-1.373H195.5a1.932,1.932,0,0,1,1.93,1.93V283.4A1.932,1.932,0,0,1,195.5,285.327Z" transform="translate(-167.215 -252.239)" fill="#7d8c48"/></g></g></svg>