<svg xmlns="http://www.w3.org/2000/svg" width="102.508" height="102.477" viewBox="0 0 102.508 102.477"><g transform="translate(0.05 0.051)"><path d="M98.976,58.717V51.891a8.543,8.543,0,0,0-8.532-8.532H33.531a5.911,5.911,0,0,0,.6-2.56,5.973,5.973,0,0,0-5.973-5.973H13.652V31.413A3.413,3.413,0,0,0,10.239,28H3.413A3.413,3.413,0,0,0,0,31.413V79.195a3.413,3.413,0,0,0,3.413,3.413h6.826a3.413,3.413,0,0,0,3.413-3.413V70.662H88.737v8.532a3.413,3.413,0,0,0,3.413,3.413h6.826a3.413,3.413,0,0,0,3.413-3.413V62.13A3.413,3.413,0,0,0,98.976,58.717Zm-3.413-6.826v6.826H39.249V46.771H90.444a5.119,5.119,0,0,1,5.119,5.119ZM13.652,46.771H35.836V58.717H13.652Zm14.505-8.532a2.56,2.56,0,1,1,0,5.119H13.652V38.239ZM98.976,79.195H92.15V68.956a1.706,1.706,0,0,0-1.706-1.706h-78.5a1.706,1.706,0,0,0-1.706,1.706V79.195H3.413V31.413h6.826v29.01a1.706,1.706,0,0,0,1.706,1.706H98.976Z" transform="translate(0.036 19.818)" fill="#7d8c48"/><path d="M81.947.036A20.5,20.5,0,0,0,61.469,20.514c0,.372.051.737.072,1.108a20.3,20.3,0,0,0-20.621,0c.02-.37.072-.735.072-1.108A20.521,20.521,0,1,0,30.807,38.2c-.019.362-.055.72-.055,1.087a20.478,20.478,0,0,0,40.956,0c0-.367-.036-.725-.055-1.087A20.478,20.478,0,1,0,81.947.036ZM20.513,37.579A17.149,17.149,0,1,1,37.085,24.514a20.478,20.478,0,0,0-5.48,8.937A16.961,16.961,0,0,1,20.513,37.579ZM51.23,56.35A17.065,17.065,0,1,1,68.3,39.285,17.065,17.065,0,0,1,51.23,56.35ZM81.947,37.579A16.962,16.962,0,0,1,70.853,33.45a20.478,20.478,0,0,0-5.473-8.935A17.055,17.055,0,1,1,81.947,37.579Z" transform="translate(0 0)" fill="#7d8c48"/><path d="M32.826,20.119a3.413,3.413,0,0,1,3.413,3.413,1.706,1.706,0,1,0,3.413,0,6.826,6.826,0,0,0-5.119-6.584v-.242a1.706,1.706,0,1,0-3.413,0v.242a6.812,6.812,0,0,0,1.706,13.41,3.413,3.413,0,1,1-3.413,3.413,1.706,1.706,0,0,0-3.413,0,6.826,6.826,0,0,0,5.119,6.584V40.6a1.706,1.706,0,1,0,3.413,0v-.242a6.812,6.812,0,0,0-1.706-13.41,3.413,3.413,0,1,1,0-6.826Z" transform="translate(18.404 10.634)" fill="#7d8c48"/><path d="M14.826,9.119a3.413,3.413,0,0,1,3.413,3.413,1.706,1.706,0,0,0,3.413,0,6.826,6.826,0,0,0-5.119-6.584V5.706a1.706,1.706,0,0,0-3.413,0v.242a6.812,6.812,0,0,0,1.706,13.41,3.413,3.413,0,1,1-3.413,3.413,1.706,1.706,0,1,0-3.413,0,6.826,6.826,0,0,0,5.119,6.584V29.6a1.706,1.706,0,1,0,3.413,0v-.242a6.812,6.812,0,0,0-1.706-13.41,3.413,3.413,0,0,1,0-6.826Z" transform="translate(5.687 2.862)" fill="#7d8c48"/><path d="M50.826,9.119a3.413,3.413,0,0,1,3.413,3.413,1.706,1.706,0,1,0,3.413,0,6.826,6.826,0,0,0-5.119-6.584V5.706a1.706,1.706,0,1,0-3.413,0v.242a6.812,6.812,0,0,0,1.706,13.41,3.413,3.413,0,1,1-3.413,3.413,1.706,1.706,0,1,0-3.413,0,6.826,6.826,0,0,0,5.119,6.584V29.6a1.706,1.706,0,1,0,3.413,0v-.242a6.812,6.812,0,0,0-1.706-13.41,3.413,3.413,0,0,1,0-6.826Z" transform="translate(31.121 2.862)" fill="#7d8c48"/></g></svg>