<svg xmlns="http://www.w3.org/2000/svg" width="145.652" height="145.652" viewBox="0 0 145.652 145.652"><path d="M134.864,109.073c-.671,0-1.333.033-1.988.085V67.072H139.5a1.815,1.815,0,0,0,1.813-1.813V56.2a1.815,1.815,0,0,0-1.813-1.813H106.169V46.276a1.815,1.815,0,0,0-1.813-1.813h-11.2v-6H112.4a1.815,1.815,0,0,0,1.813-1.813V16.813A1.815,1.815,0,0,0,112.4,15H43.919a1.815,1.815,0,0,0-1.813,1.813V36.648a1.815,1.815,0,0,0,1.813,1.813H63.162v6H51.96a1.815,1.815,0,0,0-1.813,1.813v8.111H16.813A1.815,1.815,0,0,0,15,56.2v9.059a1.815,1.815,0,0,0,1.813,1.813H23.44v73.2a1.815,1.815,0,0,0,1.813,1.813h84.859a25.787,25.787,0,1,0,24.752-33.017Zm2.825-51.06v5.433H106.169V58.013ZM45.732,18.626h64.855V34.835H45.732ZM66.788,38.462H89.53v6H66.788Zm35.754,9.628v90.374H86.8V111.279a1.815,1.815,0,0,0-1.813-1.813H71.327a1.815,1.815,0,0,0-1.813,1.813v27.184H53.773V48.089ZM83.176,138.463H73.14V113.092H83.176ZM18.626,58.013H50.147v5.433H18.626Zm8.44,9.059H50.144v71.391H27.066Zm79.1,71.391V67.072h23.078V109.7a25.747,25.747,0,0,0-19.917,28.765Zm28.7,18.563a22.162,22.162,0,1,1,22.162-22.162A22.187,22.187,0,0,1,134.864,157.026ZM43.293,75.545H33.92a1.815,1.815,0,0,0-1.813,1.813v9.371a1.815,1.815,0,0,0,1.813,1.813H43.29A1.815,1.815,0,0,0,45.1,86.729V77.359A1.81,1.81,0,0,0,43.293,75.545ZM41.48,84.916H35.733V79.172h5.745v5.744Zm1.813,9.108H33.92a1.815,1.815,0,0,0-1.813,1.813v9.371a1.815,1.815,0,0,0,1.813,1.813H43.29a1.815,1.815,0,0,0,1.813-1.813V95.837A1.81,1.81,0,0,0,43.293,94.024Zm-1.813,9.371H35.733V97.65h5.745v5.745Zm71.542-14.852h9.371a1.815,1.815,0,0,0,1.813-1.813V77.359a1.815,1.815,0,0,0-1.813-1.813h-9.371a1.815,1.815,0,0,0-1.813,1.813v9.371A1.813,1.813,0,0,0,113.022,88.542Zm1.813-9.371h5.745v5.745h-5.745Zm-1.813,27.849h9.371a1.815,1.815,0,0,0,1.813-1.813V95.837a1.815,1.815,0,0,0-1.813-1.813h-9.371a1.815,1.815,0,0,0-1.813,1.813v9.371A1.813,1.813,0,0,0,113.022,107.021Zm1.813-9.371h5.745v5.745h-5.745ZM63.476,104h9.371a1.815,1.815,0,0,0,1.813-1.813V92.818a1.815,1.815,0,0,0-1.813-1.813H63.476a1.815,1.815,0,0,0-1.813,1.813v9.371A1.815,1.815,0,0,0,63.476,104Zm1.813-9.374h5.744v5.745H65.289Zm-1.813-8.256h9.371A1.815,1.815,0,0,0,74.66,84.56V75.189a1.815,1.815,0,0,0-1.813-1.813H63.476a1.815,1.815,0,0,0-1.813,1.813V84.56A1.815,1.815,0,0,0,63.476,86.373ZM65.289,77h5.744v5.745H65.289Zm-1.813-8.259h9.371A1.815,1.815,0,0,0,74.66,66.93V57.56a1.815,1.815,0,0,0-1.813-1.813H63.476a1.815,1.815,0,0,0-1.813,1.813V66.93A1.815,1.815,0,0,0,63.476,68.743Zm1.813-9.371h5.744v5.745H65.289ZM83.127,104H92.5a1.815,1.815,0,0,0,1.813-1.813V92.818A1.815,1.815,0,0,0,92.5,91.005H83.127a1.815,1.815,0,0,0-1.813,1.813v9.371A1.815,1.815,0,0,0,83.127,104Zm1.813-9.374h5.745v5.745H84.94Zm-1.813-8.256H92.5a1.815,1.815,0,0,0,1.813-1.813V75.189A1.815,1.815,0,0,0,92.5,73.376H83.127a1.815,1.815,0,0,0-1.813,1.813V84.56A1.815,1.815,0,0,0,83.127,86.373ZM84.94,77h5.745v5.745H84.94Zm-1.813-8.259H92.5a1.815,1.815,0,0,0,1.813-1.813V57.56A1.815,1.815,0,0,0,92.5,55.746H83.127a1.815,1.815,0,0,0-1.813,1.813V66.93A1.815,1.815,0,0,0,83.127,68.743Zm1.813-9.371h5.745v5.745H84.94ZM153.4,131.891l-1.556-2.559a5.954,5.954,0,0,0-8.144-2.007l-2.526,1.52-7.73-4.935a1.812,1.812,0,0,0-1.81-.082l-5.488,2.85a1.81,1.81,0,0,0-.269,3.043l5.034,3.877-3.4,2.079-4.043-1.3a1.809,1.809,0,0,0-1.39.118l-5.022,2.611a1.812,1.812,0,0,0-.139,3.137l7.18,4.581a7.756,7.756,0,0,0,7.923.351l20.675-10.743a1.8,1.8,0,0,0,.707-2.541Zm-23.06,10.075a4.158,4.158,0,0,1-4.3-.19l-4.53-2.892,1.565-.813,4.116,1.321a1.815,1.815,0,0,0,1.5-.178l6.364-3.886a1.816,1.816,0,0,0,.16-2.986l-4.871-3.753,2.037-1.058,7.8,4.974a1.806,1.806,0,0,0,1.91.024l3.49-2.1a2.323,2.323,0,0,1,3.176.783l.547.9ZM101.86,26.731a1.815,1.815,0,0,1-1.813,1.813H56.269a1.813,1.813,0,0,1,0-3.626h43.774A1.815,1.815,0,0,1,101.86,26.731Z" transform="translate(-15 -15)" fill="#7d8c48"/></svg>