<svg xmlns="http://www.w3.org/2000/svg" width="86.206" height="86.206" viewBox="0 0 86.206 86.206"><g transform="translate(-756.897 -8978.021)"><circle cx="43.103" cy="43.103" r="43.103" transform="translate(756.897 8978.021)" fill="#b8dcf3"/><g transform="translate(776.338 8992.332)"><path d="M44.458,57.388h-.631l-.7-23.847a3.141,3.141,0,0,0-.2-6.275H36.891a3.141,3.141,0,0,0-.2,6.275l-.035,1.183a34.7,34.7,0,0,1-25.962.678l-.055-1.861a3.141,3.141,0,0,0-.2-6.275H4.4a3.141,3.141,0,0,0-.2,6.275L3.5,57.388H2.865A2.869,2.869,0,0,0,0,60.254v1.812a.647.647,0,0,0,.647.647h46.03a.647.647,0,0,0,.647-.647V60.254a2.869,2.869,0,0,0-2.865-2.865ZM37.982,33.553h3.849l.492,16.7H37.489Zm-.529,17.993h4.909l.172,5.842H37.28ZM35.042,30.41a1.851,1.851,0,0,1,1.849-1.849h6.031a1.849,1.849,0,1,1,0,3.7H36.891A1.851,1.851,0,0,1,35.042,30.41Zm1.05,23.341L33.174,45.26a.648.648,0,0,0-.612-.437h-17.8a.648.648,0,0,0-.612.437l-2.918,8.491-.383-13.014A39.46,39.46,0,0,0,22.82,42.592a39.412,39.412,0,0,0,13.671-2.425Zm-26.258-3.5H5l.492-16.7H9.342Zm.9-13.446a36.037,36.037,0,0,0,25.88-.65l-.077,2.615A38.118,38.118,0,0,1,22.823,41.3,38.164,38.164,0,0,1,10.81,39.373Zm-8.18-6.4A1.851,1.851,0,0,1,4.4,28.561h6.031a1.849,1.849,0,0,1,0,3.7H4.4A1.851,1.851,0,0,1,2.553,30.41Zm2.41,21.136H9.871l.172,5.842H4.791ZM1.294,60.254a1.573,1.573,0,0,1,1.571-1.571h9.1a1.573,1.573,0,0,1,1.571,1.571v1.163H1.294ZM11.97,57.388H11.35l3.873-11.271H32.1l3.873,11.271h-.619a2.869,2.869,0,0,0-2.865,2.865v1.163H14.835V60.254a2.869,2.869,0,0,0-2.865-2.865Zm34.06,4.03H33.783V60.255a1.573,1.573,0,0,1,1.571-1.571h9.1a1.573,1.573,0,0,1,1.571,1.571Z" transform="translate(0 -14.083)" fill="#20849e"/><path d="M46.339,14.527l-.793,4.626a.665.665,0,0,0,.939.682l4.154-2.184,4.154,2.184a.665.665,0,0,0,.939-.682l-.793-4.626L58.3,11.251a.665.665,0,0,0-.359-1.1L53.3,9.472,51.219,5.263a.665.665,0,0,0-1.16,0L47.981,9.472l-4.645.675a.665.665,0,0,0-.359,1.1ZM48.5,10.7a.648.648,0,0,0,.487-.354l1.647-3.339,1.647,3.339a.648.648,0,0,0,.487.354l3.685.535-2.666,2.6a.648.648,0,0,0-.185.573l.629,3.669-3.3-1.732a.647.647,0,0,0-.6,0l-3.3,1.732.629-3.669a.648.648,0,0,0-.185-.573l-2.666-2.6Z" transform="translate(-26.977)" fill="#20849e"/></g></g></svg>