<svg xmlns="http://www.w3.org/2000/svg" width="86.206" height="86.206" viewBox="0 0 86.206 86.206"><g transform="translate(-1101.348 -8978)"><circle cx="43.103" cy="43.103" r="43.103" transform="translate(1101.348 8978)" fill="#b8dcf3"/><g transform="translate(1119.348 8994.737)"><path d="M48.034,15.79c-.073-.069-6.2-5.5-6.268-5.54a.505.505,0,0,0,.012-.059V6.741A1.48,1.48,0,0,0,40.3,5.263H14.659A1.48,1.48,0,0,0,13.18,6.741v3.29c-.073.064-6.589,5.828-6.517,5.759a.6.6,0,0,0-.171.391v3.476A4.606,4.606,0,0,0,9.11,23.805v3.551A7.657,7.657,0,0,0,2,34.985c0,2.758,3.065,7.323,5.654,10.688H5.13a.541.541,0,0,0,0,1.083H47.413a.541.541,0,0,0,0-1.083H45.589V23.8a4.605,4.605,0,0,0,2.616-4.146V16.182a.6.6,0,0,0-.171-.391Zm-16.08,3.868V16.723H39V19.64s0,.009,0,.014a3.524,3.524,0,0,1-3.516,3.524A3.559,3.559,0,0,1,31.953,19.658Zm-8.123,0s0-.009,0-.014V16.723H30.87v2.928s0,0,0,0a3.52,3.52,0,1,1-7.04,0Zm-4.607,3.524a3.552,3.552,0,0,1-3.522-3.52V16.723h7.043v2.935A3.524,3.524,0,0,1,19.223,23.178Zm.292-12.445h4.449L22.853,15.64h-6.67Zm5.559,0h4.548l1.112,4.907H23.963l1.112-4.907Zm6.77,4.907-1.111-4.907h4.448l3.334,4.907Zm7.98,0L36.49,10.733h4.186l5.556,4.907ZM14.659,6.346H40.3a.4.4,0,0,1,.4.4V9.65H14.263V6.741a.4.4,0,0,1,.4-.4Zm-.638,4.387h4.185L14.873,15.64H8.465ZM7.575,19.658V16.723h7.043v2.921s0,.007,0,.01a3.521,3.521,0,1,1-7.041,0Zm2.064,8.754.012,0a6.584,6.584,0,0,1,6.568,6.567c0,2.706-3.833,7.956-5.475,10.084a1.382,1.382,0,0,1-2.193,0c-3.475-4.509-5.468-8.183-5.468-10.079a6.576,6.576,0,0,1,6.556-6.573Zm22.787,7.053a4.836,4.836,0,0,1,4.822-4.854h.016A4.844,4.844,0,0,1,42.1,35.433l.033,10.224-9.676.017Zm12.081-9.219H30.378a.541.541,0,1,0,0,1.083H44.506V45.673H43.218l-.033-10.244a5.927,5.927,0,0,0-5.92-5.9h-.02a5.917,5.917,0,0,0-5.9,5.94l.033,10.205H11.645c.222-.289.448-.59.675-.9,2.421-3.244,4.983-7.272,4.983-9.793a7.69,7.69,0,0,0-7.11-7.634V24.172a4.6,4.6,0,0,0,4.964-2.347,4.606,4.606,0,0,0,8.116.02c0-.008.01-.014.014-.022v0a4.6,4.6,0,0,0,8.122,0,4.6,4.6,0,0,0,8.125,0,4.605,4.605,0,0,0,4.972,2.347Zm2.616-6.588a3.522,3.522,0,0,1-7.043,0V16.723h7.043Z" fill="#20849e"/><path d="M34.144,38.874H26.2a1.634,1.634,0,0,0-1.631,1.632V45.73A1.634,1.634,0,0,0,26.2,47.363h7.945a1.634,1.634,0,0,0,1.632-1.632V40.506A1.634,1.634,0,0,0,34.144,38.874Zm.549,1.632v2.13h-3.98V39.957h3.431a.55.55,0,0,1,.549.549ZM26.2,39.957H29.63v2.679H25.65v-2.13A.55.55,0,0,1,26.2,39.957ZM25.65,45.73V43.719h3.98v2.56H26.2a.55.55,0,0,1-.549-.549Zm8.494.549H30.713v-2.56h3.98V45.73A.55.55,0,0,1,34.144,46.28Z" transform="translate(-6.275 -9.346)" fill="#20849e"/><path d="M35.064,57.887h-6.8a.541.541,0,0,0,0,1.083h6.8a.541.541,0,0,0,0-1.083Z" transform="translate(-7.153 -14.632)" fill="#20849e"/><path d="M26.127,57.887h-.367a.541.541,0,0,0,0,1.083h.367a.541.541,0,1,0,0-1.083Z" transform="translate(-6.456 -14.632)" fill="#20849e"/><path d="M15.353,44.387a4.019,4.019,0,1,0-4.019,4.007A4.024,4.024,0,0,0,15.353,44.387Zm-6.956,0a2.936,2.936,0,1,1,2.936,2.924A2.94,2.94,0,0,1,8.4,44.387Z" transform="translate(-1.478 -9.761)" fill="#20849e"/><path d="M38.724,35.41h.128a.541.541,0,1,0,0-1.083h-.128a.541.541,0,1,0,0,1.083Z" transform="translate(-10.06 -8.081)" fill="#20849e"/><path d="M53.515,52.426a1.633,1.633,0,1,0-1.629-1.637A1.635,1.635,0,0,0,53.515,52.426Zm0-2.183a.55.55,0,1,1-.546.546A.547.547,0,0,1,53.515,50.243Z" transform="translate(-13.871 -12.205)" fill="#20849e"/><path d="M9.392,12.454,6.735,14.739a.542.542,0,0,0,.706.821L10.1,13.276a.542.542,0,0,0-.706-.821Z" transform="translate(-1.264 -1.963)" fill="#20849e"/><path d="M12.352,10.7l-.276.238a.542.542,0,0,0,.706.821l.276-.238a.542.542,0,0,0-.706-.821Z" transform="translate(-2.749 -1.474)" fill="#20849e"/></g></g></svg>