<svg xmlns="http://www.w3.org/2000/svg" width="86.206" height="86.206" viewBox="0 0 86.206 86.206"><g transform="translate(-411.119 -9548.021)"><circle cx="43.103" cy="43.103" r="43.103" transform="translate(411.119 9548.021)" fill="#b8dcf3"/><g transform="translate(414.998 9494.258)"><path d="M60.961,103.767A3.065,3.065,0,0,0,58.935,98.4H57.27a2.3,2.3,0,0,0-.455-2.3,2.291,2.291,0,0,0,.587-1.533V91.5a2.3,2.3,0,0,0-2.3-2.3h-.9a2.3,2.3,0,0,0-.456-2.3,2.3,2.3,0,0,0-1.713-3.834H37.921A6.276,6.276,0,0,0,32.505,80H24.322a3.05,3.05,0,0,0-2.743,1.7l-3.964,7.929a.767.767,0,0,0,.431,1.066l1.064.376a2.314,2.314,0,0,0-.043.435v6.134a2.289,2.289,0,0,0,.132.767h-.132A3.07,3.07,0,0,0,16,101.467v9.2a3.07,3.07,0,0,0,3.067,3.067H58.935A3.07,3.07,0,0,0,62,110.668v-4.6a3.06,3.06,0,0,0-1.042-2.3Zm-.492-2.3A1.535,1.535,0,0,1,58.935,103H46.256a3.056,3.056,0,0,0,0-3.067h12.68a1.535,1.535,0,0,1,1.533,1.533Zm-4.6-9.967v3.067a.768.768,0,0,1-.767.767H45.9a.767.767,0,1,1,0-1.533h6.134a.767.767,0,0,0,0-1.533H45.9a2.3,2.3,0,1,0,0,4.6h9.2a.767.767,0,1,1,0,1.533H42.835a.768.768,0,0,1-.767-.767V91.5a.768.768,0,0,1,.767-.767H55.1a.768.768,0,0,1,.767.767ZM34.1,87.667h6.431a.767.767,0,0,1,0,1.533h-6.87ZM42.7,89.2a2.294,2.294,0,0,0,0-1.533h9.332a.767.767,0,0,1,0,1.533Zm10.1-3.834a.768.768,0,0,1-.767.767H42.7a2.294,2.294,0,0,0,0-1.533h9.332A.768.768,0,0,1,52.8,85.367ZM40.534,84.6a.767.767,0,0,1,0,1.533H34.541l.438-1.533ZM22.95,82.381a1.525,1.525,0,0,1,1.372-.848h8.184a4.753,4.753,0,0,1,3.513,1.533H31.334a.767.767,0,0,0-.686.424l-1.533,3.067,1.371.686L31.808,84.6h1.577l-1.692,5.922-9.284-3.571-.551,1.431L31.27,92l-.449,1.571-11.446-4.04ZM20.6,97.634V91.592l10.479,3.7a.767.767,0,0,0,.992-.512l1.155-4.044h7.44a2.289,2.289,0,0,0-.132.767v6.134a2.289,2.289,0,0,0,.132.767h-19.3A.768.768,0,0,1,20.6,97.634ZM19.067,112.2a1.535,1.535,0,0,1-1.533-1.533v-9.2a1.535,1.535,0,0,1,1.533-1.533H43.6a1.533,1.533,0,1,1,0,3.067H22.9a3.067,3.067,0,1,0,0,6.134H41.3a.767.767,0,1,0,0-1.533H22.9a1.533,1.533,0,1,1,0-3.067H43.6a1.535,1.535,0,0,1,1.533,1.533v4.6A1.535,1.535,0,0,1,43.6,112.2Zm41.4-1.533a1.535,1.535,0,0,1-1.533,1.533H46.255a3.047,3.047,0,0,0,.413-1.533v-4.6a3.047,3.047,0,0,0-.412-1.533h12.68a1.535,1.535,0,0,1,1.533,1.533Z" fill="#20849e"/></g></g></svg>