<svg xmlns="http://www.w3.org/2000/svg" width="86.206" height="86.206" viewBox="0 0 86.206 86.206"><g transform="translate(-756.897 -9548.021)"><circle cx="43.103" cy="43.103" r="43.103" transform="translate(756.897 9548.021)" fill="#b8dcf3"/><path d="M45.551,15.865H41.018a3.2,3.2,0,0,1-2.488-1.29,4.679,4.679,0,0,0-3.556-1.732h-.755V3.777A3.782,3.782,0,0,0,30.441,0H7.777A3.782,3.782,0,0,0,4,3.777V46.084A2.269,2.269,0,0,0,6.266,48.35H31.952a2.269,2.269,0,0,0,2.266-2.266v-8.31h.755a9.119,9.119,0,0,0,5.56-1.511h5.017a.755.755,0,0,0,.755-.755V16.62A.755.755,0,0,0,45.551,15.865Zm-8.089-.221a4.678,4.678,0,0,0,3.556,1.732H44.8V23.42H41.018a3.2,3.2,0,0,1-2.488-1.29A4.679,4.679,0,0,0,34.974,20.4h-6.8V18.131H31.2a.755.755,0,1,0,0-1.511H28.175V14.354h6.8A3.2,3.2,0,0,1,37.462,15.644ZM32.708,3.777v9.066H28.175V3.777a2.266,2.266,0,0,1,4.533,0ZM7.777,1.511H27.438a3.742,3.742,0,0,0-.774,2.266V20.4H25.153a.755.755,0,0,0-.755.755V23.42a2.251,2.251,0,0,0,.129.755H17.6A2.267,2.267,0,0,0,15.461,27.2h-.129a2.266,2.266,0,0,0,0,4.533h.129A2.267,2.267,0,0,0,17.6,34.752h.129a2.267,2.267,0,0,0,2.137,3.022h6.8V40.8H5.511V3.777A2.269,2.269,0,0,1,7.777,1.511Zm-2.266,40.8H26.664v1.511H5.511Zm0,3.777v-.755H26.664v.755a.756.756,0,0,1-.755.755H6.266A.756.756,0,0,1,5.511,46.084Zm27.2,0a.756.756,0,0,1-.755.755H28.035a2.22,2.22,0,0,0,.14-.755v-8.31h4.533ZM44.8,34.752H40.263a.775.775,0,0,0-.527.215c-.014.014-1.4,1.3-4.761,1.3H19.865a.755.755,0,0,1,0-1.511h5.288a.755.755,0,0,0,0-1.511H17.6a.755.755,0,0,1,0-1.511h7.555a.755.755,0,0,0,0-1.511H15.332a.755.755,0,0,1,0-1.511h9.821a.755.755,0,0,0,0-1.511H17.6a.755.755,0,0,1,0-1.511H31.2a.755.755,0,1,0,0-1.511H26.664a.756.756,0,0,1-.755-.755V21.909h9.066a3.2,3.2,0,0,1,2.488,1.29,4.678,4.678,0,0,0,3.556,1.732H44.8Z" transform="translate(775.194 9566.825)" fill="#20849e"/></g></svg>