<svg xmlns="http://www.w3.org/2000/svg" width="86.206" height="86.206" viewBox="0 0 86.206 86.206"><g transform="translate(-1101 -9548.021)"><circle cx="43.103" cy="43.103" r="43.103" transform="translate(1101 9548.021)" fill="#b8dcf3"/><path d="M58.562,36.984c-.441-.736-2.251-2.924-7.023-.144l-8.393,4.888a4.623,4.623,0,0,1-1.255.511,3.338,3.338,0,0,0,.366-.871,3.2,3.2,0,0,0-2.177-3.825.758.758,0,0,0-.1-.025,42.026,42.026,0,0,1-6.7-1.987c-.665-.24-1.292-.467-1.826-.64-2.155-.7-4.1.166-5.72,1.1L19.5,39.6l-.581-1.027a2,2,0,0,0-2.72-.754l-2.355,1.333a2,2,0,0,0-.754,2.72l6.923,12.233a1.982,1.982,0,0,0,1.2.939,2.016,2.016,0,0,0,.538.074,1.978,1.978,0,0,0,.977-.259l2.355-1.333a2,2,0,0,0,.754-2.72l-.706-1.248,1.4-.811,10.743,2.879a6.9,6.9,0,0,0,1.79.245A6.26,6.26,0,0,0,42.4,50.9l15.231-9.379a3.443,3.443,0,0,0,.929-4.541Zm-34,14.934a.472.472,0,0,1-.223.287l-2.355,1.333a.479.479,0,0,1-.648-.18L14.412,41.126a.479.479,0,0,1,.18-.648l2.355-1.333a.468.468,0,0,1,.231-.061.485.485,0,0,1,.13.018.472.472,0,0,1,.287.223l6.923,12.233a.472.472,0,0,1,.043.361ZM56.836,40.231,41.6,49.609a4.837,4.837,0,0,1-3.928.551L26.629,47.2a.761.761,0,0,0-.577.076l-1.666.962-4.138-7.312,6.244-3.615c1.4-.809,2.907-1.486,4.49-.973.51.165,1.1.378,1.779.624a43.5,43.5,0,0,0,6.9,2.043,1.653,1.653,0,0,1,1.133,1.97,1.581,1.581,0,0,1-1.921,1.141c-1.235-.254-2.41-.589-3.652-.944-.59-.168-1.2-.342-1.826-.51A.76.76,0,0,0,33,42.13c.615.165,1.218.337,1.8.5,1.281.366,2.491.712,3.795.978l.015,0,.015,0,1.044.17a6.175,6.175,0,0,0,4.244-.746L52.3,38.153c2.408-1.4,4.26-1.547,4.954-.388a1.945,1.945,0,0,1-.422,2.466ZM17.623,41.494a.841.841,0,1,1-.954-.71A.841.841,0,0,1,17.623,41.494ZM33.152,26l1.585.61a10.781,10.781,0,0,0,1,2.423l-.69,1.553a.76.76,0,0,0,.157.846l2.253,2.253a.76.76,0,0,0,.846.157l1.554-.69a10.785,10.785,0,0,0,2.422,1l.61,1.585a.76.76,0,0,0,.709.487h3.186a.76.76,0,0,0,.709-.487l.61-1.585a10.778,10.778,0,0,0,2.423-1l1.553.69a.76.76,0,0,0,.846-.157l2.253-2.253a.76.76,0,0,0,.157-.846l-.69-1.554a10.779,10.779,0,0,0,1-2.422L57.239,26a.76.76,0,0,0,.487-.709V22.107a.76.76,0,0,0-.487-.709l-1.585-.61a10.781,10.781,0,0,0-1-2.423l.69-1.553a.76.76,0,0,0-.157-.846L52.93,13.713a.76.76,0,0,0-.846-.157l-1.554.69a10.784,10.784,0,0,0-2.422-1l-.61-1.586a.76.76,0,0,0-.709-.487H43.6a.76.76,0,0,0-.709.487l-.61,1.586a10.785,10.785,0,0,0-2.422,1l-1.554-.69a.76.76,0,0,0-.846.157l-2.253,2.253a.76.76,0,0,0-.157.846l.69,1.554a10.776,10.776,0,0,0-1,2.422l-1.585.61a.76.76,0,0,0-.487.709v3.186a.76.76,0,0,0,.487.709Zm1.033-3.373,1.463-.563a.76.76,0,0,0,.466-.533,9.269,9.269,0,0,1,1.127-2.719.76.76,0,0,0,.048-.707l-.637-1.434,1.515-1.515,1.435.637a.76.76,0,0,0,.707-.048,9.273,9.273,0,0,1,2.719-1.127.76.76,0,0,0,.533-.466l.563-1.464h2.142l.563,1.464a.76.76,0,0,0,.533.466,9.272,9.272,0,0,1,2.719,1.127.76.76,0,0,0,.707.048l1.435-.637,1.515,1.515L53.1,18.105a.76.76,0,0,0,.048.707,9.271,9.271,0,0,1,1.127,2.72.76.76,0,0,0,.466.533l1.463.563v2.142l-1.463.563a.76.76,0,0,0-.466.533,9.271,9.271,0,0,1-1.127,2.719.76.76,0,0,0-.047.707l.637,1.435-1.515,1.515-1.434-.637a.759.759,0,0,0-.707.048,9.267,9.267,0,0,1-2.72,1.127.76.76,0,0,0-.533.466l-.563,1.463H44.125l-.563-1.464a.76.76,0,0,0-.533-.466,9.27,9.27,0,0,1-2.719-1.127.761.761,0,0,0-.707-.048l-1.435.637-1.515-1.515.637-1.434a.76.76,0,0,0-.048-.707,9.272,9.272,0,0,1-1.127-2.72.76.76,0,0,0-.466-.533l-1.463-.563V22.629ZM45.2,30.506A6.807,6.807,0,1,0,38.389,23.7,6.814,6.814,0,0,0,45.2,30.506Zm0-12.093A5.287,5.287,0,1,1,39.909,23.7,5.293,5.293,0,0,1,45.2,18.413ZM41.628,24.46a.76.76,0,0,1,0-1.52h2.808V20.132a.76.76,0,0,1,1.52,0V22.94h2.808a.76.76,0,0,1,0,1.52H45.956v2.808a.76.76,0,1,1-1.52,0V24.46Zm-17.443-.072a8.2,8.2,0,1,0-8.2-8.2A8.205,8.205,0,0,0,24.185,24.388Zm0-14.872a6.676,6.676,0,1,1-6.676,6.676A6.683,6.683,0,0,1,24.185,9.516Zm0,12.809a6.133,6.133,0,1,0-6.133-6.133A6.14,6.14,0,0,0,24.185,22.325Zm0-10.747a4.613,4.613,0,1,1-4.613,4.613A4.619,4.619,0,0,1,24.185,11.579Zm.9,6.2a.27.27,0,0,0,.06-.237c-.016-.135-.055-.451-1.078-.619-1.834-.3-2.156-1.356-2.185-1.958a2.044,2.044,0,0,1,1.544-2.059v-.114a.76.76,0,1,1,1.52,0V12.9a2.324,2.324,0,0,1,1.523,1.366.76.76,0,0,1-1.4.588.951.951,0,0,0-1.12-.514c-.133.03-.565.159-.546.552,0,.1.019.384.913.531,1.426.234,2.213.885,2.341,1.936a1.778,1.778,0,0,1-.419,1.415,2.446,2.446,0,0,1-1.29.733v.086a.76.76,0,0,1-1.52,0v-.1a2.323,2.323,0,0,1-1.7-1.671.76.76,0,0,1,1.475-.368.97.97,0,0,0,1.038.619A1.256,1.256,0,0,0,25.085,17.778Z" transform="translate(1108.169 9562.445)" fill="#20849e"/></g></svg>