<svg xmlns="http://www.w3.org/2000/svg" width="86.206" height="86.206" viewBox="0 0 86.206 86.206"><g transform="translate(-411.119 -9839.021)"><circle cx="43.103" cy="43.103" r="43.103" transform="translate(411.119 9839.021)" fill="#b8dcf3"/><path d="M8.234,39.421A8.522,8.522,0,1,0,16.756,30.9a8.522,8.522,0,0,0-8.522,8.522Zm15.49,0a6.968,6.968,0,1,1-6.968-6.968A6.968,6.968,0,0,1,23.724,39.421ZM17.275,34.93a.776.776,0,0,1,.965-.525,5.2,5.2,0,0,1,.727.275.777.777,0,1,1-.657,1.408,3.666,3.666,0,0,0-.51-.194.777.777,0,0,1-.525-.965Zm-1.293.036a.777.777,0,0,1-.469.994,3.686,3.686,0,0,0-2.433,3.461.777.777,0,1,1-1.554,0A5.243,5.243,0,0,1,14.988,34.5a.777.777,0,0,1,.994.469Zm34.153-3.194a2.207,2.207,0,0,0-1.717-1.731L38.9,28.048a2.1,2.1,0,0,1,.63-1,2.291,2.291,0,0,0,.72-2.242,2.278,2.278,0,0,0-4.494.526.777.777,0,1,0,1.554,0,.72.72,0,0,1,.273-.566.728.728,0,0,1,.631-.136.715.715,0,0,1,.521.521.73.73,0,0,1-.227.725,3.662,3.662,0,0,0-1.191,2.137l-9.664,2.024a2.216,2.216,0,0,0,.453,4.386h.335V45.2a.777.777,0,0,0,.777.777h.739v6.439H3.554V26.82H29.96v.485a.777.777,0,0,0,1.554,0V19.777A.777.777,0,0,0,30.737,19H2.777A.777.777,0,0,0,2,19.777V53.192a.777.777,0,0,0,.777.777h27.96a.777.777,0,0,0,.777-.777V45.976H46.85a.777.777,0,0,0,.777-.777V34.427h.335a2.214,2.214,0,0,0,2.172-2.655ZM29.96,20.554v4.712H3.554V20.554ZM46.073,44.421H30v-10h3.168v3.912a.777.777,0,0,0,1.554,0V34.426h7.3v2.605a.777.777,0,0,0,1.554,0V34.426h2.5Zm2.4-11.793a.661.661,0,0,1-.514.244H28.107a.662.662,0,0,1-.136-1.31l10.063-2.107L48.1,31.562a.663.663,0,0,1,.377,1.066Zm-43.369-9.7a.777.777,0,0,1,.777-.777h4.358a.777.777,0,1,1,0,1.554H5.885a.777.777,0,0,1-.777-.777Zm7.306,0a.777.777,0,0,1,.777-.777h1a.777.777,0,0,1,0,1.554h-1A.777.777,0,0,1,12.414,22.925ZM43.574,40.209v.98a.777.777,0,0,1-1.554,0v-.98a.777.777,0,0,1,1.554,0Z" transform="translate(428.257 9845.516)" fill="#20849e"/></g></svg>