<svg xmlns="http://www.w3.org/2000/svg" width="86.206" height="86.206" viewBox="0 0 86.206 86.206"><g transform="translate(-1101 -9839.021)"><circle cx="43.103" cy="43.103" r="43.103" transform="translate(1101 9839.021)" fill="#b8dcf3"/><g transform="translate(1097 9856.135)"><g transform="translate(24)"><path d="M70.529,26.778a4.608,4.608,0,0,1-2.814-3.321.994.994,0,0,0-1.011-.918H62.478v-3.35a5.085,5.085,0,0,0-4.061-4.974V11.066A1.015,1.015,0,0,0,57.4,10.051H54.356V5.076A5.082,5.082,0,0,0,49.28,0H37.1A5.082,5.082,0,0,0,32.02,5.076v4.975H28.975a1.015,1.015,0,0,0-1.015,1.015v3.171A5.084,5.084,0,0,0,24,19.188V42.844a5.082,5.082,0,0,0,5.076,5.076h3.046v1.015a3.046,3.046,0,0,0,6.091,0V47.92H48.366v1.015a3.046,3.046,0,0,0,6.091,0V47.92H57.4a5.084,5.084,0,0,0,5.021-4.328c5.223-1.868,8.685-6.315,8.685-11.256V27.694A1.015,1.015,0,0,0,70.529,26.778Zm-16.173-14.7h2.031v2.031H54.356ZM50.295,2.2a3.051,3.051,0,0,1,2.03,2.872v9.036h-2.03ZM38.112,2.031H48.264V4.061H38.112Zm0,4.061H48.264v3.959H38.112Zm0,5.99H48.264v2.031H38.112ZM34.051,5.076A3.051,3.051,0,0,1,36.081,2.2V14.112H34.051ZM29.99,12.081H32.02v2.031H29.99Zm6.193,36.854a1.015,1.015,0,0,1-2.031,0V47.92h2.031Zm16.244,0a1.015,1.015,0,0,1-2.031,0V47.92h2.031ZM57.4,45.889H29.076a3.049,3.049,0,0,1-3.046-3.046V19.188a3.049,3.049,0,0,1,3.046-3.046H57.4a3.049,3.049,0,0,1,3.046,3.046v3.35H57.763a6.2,6.2,0,0,0-2.292-2.759,11.245,11.245,0,0,0-6.355-1.606H37.26a11.245,11.245,0,0,0-6.355,1.606,6.5,6.5,0,0,0-2.845,5.664v17.4a1.015,1.015,0,0,0,1.015,1.015H57.3a1.015,1.015,0,0,0,1.015-1.015v-.237a14.806,14.806,0,0,0,2.05.936A3.05,3.05,0,0,1,57.4,45.889Zm-1.117-4.65v.589H30.091V25.443c0-4.331,3.9-5.24,7.169-5.24H49.116c2.435,0,5.216.505,6.479,2.55a1,1,0,0,0-.377.643,4.647,4.647,0,0,1-2.767,3.357,1.015,1.015,0,0,0-.633.941v4.643A11.511,11.511,0,0,0,56.285,41.239Zm12.792-8.9h0c0,4.16-3.047,7.92-7.614,9.441-4.567-1.521-7.614-5.281-7.614-9.441v-4A6.649,6.649,0,0,0,57,24.569h8.907a6.763,6.763,0,0,0,3.17,3.739Z" transform="translate(-24)" fill="#20849e"/></g><g transform="translate(56.387 27.615)"><path d="M352.567,274.056a1.575,1.575,0,0,1-1.009-1.1.945.945,0,0,0-.292-.682.986.986,0,0,0-.722-.271h-4.933a.972.972,0,0,0-1.007.883,1.821,1.821,0,0,1-1.038,1.184,1.015,1.015,0,0,0-.565.91v2.2a6.413,6.413,0,0,0,4.776,5.947,1.054,1.054,0,0,0,.6,0,6.413,6.413,0,0,0,4.776-5.947v-2.2A1.015,1.015,0,0,0,352.567,274.056Zm-1.444,3.119a3.14,3.14,0,1,1-6.091,0v-1.623a3.954,3.954,0,0,0,1.308-1.522h3.446a3.69,3.69,0,0,0,1.338,1.538Z" transform="translate(-343.001 -272)" fill="#20849e"/></g></g></g></svg>