<svg xmlns="http://www.w3.org/2000/svg" width="86.206" height="86.206" viewBox="0 0 86.206 86.206"><g transform="translate(-411.348 -10124)"><circle cx="43.103" cy="43.103" r="43.103" transform="translate(411.348 10124)" fill="#b8dcf3"/><g transform="translate(432.348 10143.5)"><g transform="translate(0 4.5)"><path d="M6.1,56.277a6.106,6.106,0,0,1-6.1-6.1.678.678,0,1,1,1.355,0,4.744,4.744,0,0,0,9.488,0,.678.678,0,1,1,1.355,0A6.106,6.106,0,0,1,6.1,56.277Z" transform="translate(0 -19.002)" fill="#20849e"/><path d="M7.389,53.566A3.393,3.393,0,0,1,4,50.178a.678.678,0,1,1,1.355,0,2.033,2.033,0,1,0,4.066,0,.678.678,0,1,1,1.355,0,3.393,3.393,0,0,1-3.389,3.389Z" transform="translate(-1.289 -19.002)" fill="#20849e"/><path d="M39.854,58.855H8.678a.678.678,0,0,1,0-1.355H39.854a.678.678,0,0,1,0,1.355Z" transform="translate(-2.578 -21.58)" fill="#20849e"/><path d="M54.678,56.277a.678.678,0,0,1,0-1.355,4.75,4.75,0,0,0,4.744-4.744.678.678,0,0,1,1.355,0A6.106,6.106,0,0,1,54.678,56.277Z" transform="translate(-17.402 -19.002)" fill="#20849e"/><path d="M62.678,36.354A.677.677,0,0,1,62,35.676V5.178a.678.678,0,1,1,1.355,0v30.5a.677.677,0,0,1-.678.678Z" transform="translate(-19.98 -4.5)" fill="#20849e"/><path d="M16.678,36.354A.677.677,0,0,1,16,35.676V5.178a.678.678,0,1,1,1.355,0v30.5a.677.677,0,0,1-.678.678Z" transform="translate(-5.156 -4.5)" fill="#20849e"/><path d="M47.854,5.855H16.678a.678.678,0,0,1,0-1.355H47.854a.678.678,0,0,1,0,1.355Z" transform="translate(-5.156 -4.5)" fill="#20849e"/><path d="M.678,40.221A.677.677,0,0,1,0,39.543V17.178a.678.678,0,0,1,1.355,0V39.543a.677.677,0,0,1-.678.678Z" transform="translate(0 -8.367)" fill="#20849e"/><path d="M8.811,17.855H.678a.678.678,0,1,1,0-1.355H8.811a.678.678,0,1,1,0,1.355Z" transform="translate(0 -8.367)" fill="#20849e"/><path d="M12.678,36.354A.677.677,0,0,1,12,35.676V5.178a.678.678,0,1,1,1.355,0v30.5a.677.677,0,0,1-.678.678Z" transform="translate(-3.867 -4.5)" fill="#20849e"/><path d="M4.678,40.221A.677.677,0,0,1,4,39.543V17.178a.678.678,0,0,1,1.355,0V39.543a.677.677,0,0,1-.678.678Z" transform="translate(-1.289 -8.367)" fill="#20849e"/><path d="M15.389,5.855H12.678a.678.678,0,0,1,0-1.355h2.711a.678.678,0,1,1,0,1.355Z" transform="translate(-3.867 -4.5)" fill="#20849e"/></g><path d="M46.076,13.562h-24.4A.677.677,0,0,1,21,12.884V10.173a.677.677,0,0,1,.678-.678h24.4a.677.677,0,0,1,.678.678v2.711a.677.677,0,0,1-.678.678ZM22.355,12.206H45.4V10.851H22.355Z" transform="translate(-6.767 -1.61)" fill="#20849e"/><path d="M46.076,42.88h-24.4a.678.678,0,1,1,0-1.355h24.4a.678.678,0,0,1,0,1.355Z" transform="translate(-6.767 -11.932)" fill="#20849e"/><path d="M32.522,47.851H21.678a.678.678,0,0,1,0-1.355H32.522a.678.678,0,0,1,0,1.355Z" transform="translate(-6.767 -13.533)" fill="#20849e"/><path d="M52.541,47.851H41.7a.678.678,0,0,1,0-1.355H52.541a.678.678,0,0,1,0,1.355Z" transform="translate(-13.219 -13.533)" fill="#20849e"/><path d="M32.522,50.851H21.678a.678.678,0,0,1,0-1.355H32.522a.678.678,0,0,1,0,1.355Z" transform="translate(-6.767 -14.5)" fill="#20849e"/><path d="M52.541,50.851H41.7a.678.678,0,0,1,0-1.355H52.541a.678.678,0,0,1,0,1.355Z" transform="translate(-13.219 -14.5)" fill="#20849e"/><path d="M27.092,53.851H21.678a.678.678,0,0,1,0-1.355h5.415a.678.678,0,1,1,0,1.355Z" transform="translate(-6.767 -15.467)" fill="#20849e"/><path d="M47.112,53.851H41.7a.678.678,0,0,1,0-1.355h5.415a.678.678,0,0,1,0,1.355Z" transform="translate(-13.219 -15.467)" fill="#20849e"/><path d="M36.777,32.055a6.777,6.777,0,1,1,6.777-6.777A6.777,6.777,0,0,1,36.777,32.055Zm0-12.2A5.422,5.422,0,1,0,42.2,25.277,5.422,5.422,0,0,0,36.777,19.855Z" transform="translate(-9.668 -4.512)" fill="#20849e"/><path d="M55.1,19.855H49.678a.678.678,0,1,1,0-1.355H55.1a.678.678,0,0,1,0,1.355Z" transform="translate(-15.791 -4.512)" fill="#20849e"/><path d="M55.757,22.855h-4.08a.678.678,0,0,1,0-1.355h4.08a.678.678,0,0,1,0,1.355Z" transform="translate(-16.435 -5.478)" fill="#20849e"/><path d="M56.08,25.855h-3.4a.678.678,0,0,1,0-1.355h3.4a.678.678,0,1,1,0,1.355Z" transform="translate(-16.758 -6.445)" fill="#20849e"/><path d="M55.1,37.855H49.678a.678.678,0,0,1,0-1.355H55.1a.678.678,0,0,1,0,1.355Z" transform="translate(-15.791 -10.312)" fill="#20849e"/><path d="M55.757,34.855h-4.08a.678.678,0,0,1,0-1.355h4.08a.678.678,0,0,1,0,1.355Z" transform="translate(-16.435 -9.346)" fill="#20849e"/><path d="M56.08,31.855h-3.4a.678.678,0,0,1,0-1.355h3.4a.678.678,0,1,1,0,1.355Z" transform="translate(-16.758 -8.379)" fill="#20849e"/><path d="M56.786,28.855H54.871a.678.678,0,1,1,0-1.355h1.915a.678.678,0,0,1,0,1.355Z" transform="translate(-17.464 -7.412)" fill="#20849e"/><path d="M27.119,19.855H21.7a.678.678,0,0,1,0-1.355h5.422a.678.678,0,0,1,0,1.355Z" transform="translate(-6.774 -4.512)" fill="#20849e"/><path d="M25.757,22.855h-4.08a.678.678,0,0,1,0-1.355h4.08a.678.678,0,0,1,0,1.355Z" transform="translate(-6.767 -5.478)" fill="#20849e"/><path d="M25.08,25.855h-3.4a.678.678,0,0,1,0-1.355h3.4a.678.678,0,0,1,0,1.355Z" transform="translate(-6.767 -6.445)" fill="#20849e"/><path d="M27.119,37.855H21.7a.678.678,0,1,1,0-1.355h5.422a.678.678,0,1,1,0,1.355Z" transform="translate(-6.774 -10.312)" fill="#20849e"/><path d="M25.757,34.855h-4.08a.678.678,0,0,1,0-1.355h4.08a.678.678,0,1,1,0,1.355Z" transform="translate(-6.767 -9.346)" fill="#20849e"/><path d="M25.08,31.855h-3.4a.678.678,0,0,1,0-1.355h3.4a.678.678,0,0,1,0,1.355Z" transform="translate(-6.767 -8.379)" fill="#20849e"/><path d="M24.271,28.855H21.678a.678.678,0,0,1,0-1.355h2.593a.678.678,0,0,1,0,1.355Z" transform="translate(-6.767 -7.412)" fill="#20849e"/><path d="M42.653,25.855H31.189a.678.678,0,0,1,0-1.355H42.653a.678.678,0,1,1,0,1.355Z" transform="translate(-9.833 -6.445)" fill="#20849e"/><path d="M42.7,31.855H31.189a.678.678,0,0,1,0-1.355H42.7a.678.678,0,1,1,0,1.355Z" transform="translate(-9.833 -8.379)" fill="#20849e"/></g></g></svg>