<svg xmlns="http://www.w3.org/2000/svg" width="86.206" height="86.206" viewBox="0 0 86.206 86.206"><g transform="translate(4023.897 10233.179)"><path d="M43.1,0A43.1,43.1,0,1,1,0,43.1,43.1,43.1,0,0,1,43.1,0Z" transform="translate(-4023.897 -10233.179)" fill="#b8dcf3"/><path d="M-14.18-20.859l2.607-21.8H13.359v7.676h-16.9l-.967,8.467A11.676,11.676,0,0,1-1.743-27.6a12.683,12.683,0,0,1,3.354-.469q6.357,0,9.771,3.765T14.795-13.74a15.137,15.137,0,0,1-1.831,7.427A12.585,12.585,0,0,1,7.822-1.2,16.233,16.233,0,0,1,0,.586,17.454,17.454,0,0,1-7.529-1.069,13.51,13.51,0,0,1-13.037-5.61,11.041,11.041,0,0,1-15-12.129h9.9A5.618,5.618,0,0,0-3.6-8.408,4.737,4.737,0,0,0-.059-7.031q4.98,0,4.98-7.383,0-6.826-6.094-6.826a6.075,6.075,0,0,0-5.156,2.227Z" transform="translate(-3980.897 -10172.327)" fill="#20849e"/></g></svg>