<svg xmlns="http://www.w3.org/2000/svg" width="121.804" height="128" viewBox="0 0 121.804 128"><path d="M102.517,62.028V46.995H120.9v5.417a1.6,1.6,0,0,0,1.593,1.593h21.569a1.6,1.6,0,0,0,1.593-1.593V28.44a1.6,1.6,0,0,0-1.593-1.593H124.085V21.429a1.6,1.6,0,0,0-1.593-1.593H102.517V16.593A1.6,1.6,0,0,0,100.923,15H93.015a1.6,1.6,0,0,0-1.593,1.593V60.631H73.151l-.831-.2a75.913,75.913,0,0,0-13.331-2.321,12.406,12.406,0,0,0,3.928-8.267c.008-.088.016-.181.024-.274h3.434A5.172,5.172,0,0,0,67.89,39.455c-1.065-14-9.573-20.387-17.251-20.387S34.472,25.46,33.407,39.455a5.172,5.172,0,0,0,1.516,10.118H38.36a12.627,12.627,0,0,0,4.114,8.559C27.743,59.487,27.339,67.2,26.787,77.739q-.052,1.024-.114,2.1h0c0,.029-.005.061-.005.09v25.587a6.333,6.333,0,0,0,9.488,5.494v20.015a5.509,5.509,0,0,0-4.273,5.359v5.024A1.6,1.6,0,0,0,33.479,143H67.821a1.6,1.6,0,0,0,1.593-1.593V136.38a5.509,5.509,0,0,0-4.273-5.359V77.566H72.97a1.6,1.6,0,0,0,1.593-1.593V73.3h16.86v33.734a1.6,1.6,0,0,0,1.593,1.593h7.908a1.6,1.6,0,0,0,1.593-1.593V71.907a6.323,6.323,0,0,0,0-9.879ZM124.085,45.4V30.033h18.382V50.816H124.085ZM102.517,23.025H120.9V43.808H102.517ZM68.358,44.4a1.988,1.988,0,0,1-1.986,1.986H63.054c.013-1.251.008-2.621-.005-3.97h3.322A1.983,1.983,0,0,1,68.358,44.4Zm-8.073-17.2c2.244,2.772,3.9,6.751,4.382,12.022H61.612c-2.512-.558-6.026-3.553-5.98-6.448A10.964,10.964,0,0,1,60.285,27.205ZM38.235,46.384H34.921a1.986,1.986,0,0,1,0-3.973h3.322C38.232,43.773,38.225,45.152,38.235,46.384ZM39.9,39.23l-.048,0H36.626c.467-5.147,2.085-9.441,4.724-12.487a12.266,12.266,0,0,1,9.287-4.488,11.871,11.871,0,0,1,7.324,2.65,14.352,14.352,0,0,0-5.208,6.506,11.622,11.622,0,0,0-3.035,3.928c-1.376,2.515-2.366,4.331-9.773,3.893Zm1.609,9.818c-.106-1.423-.1-4.1-.077-6.573,7.345.1,9.321-2.382,11.084-5.609.2-.369.4-.722.6-1.06a12.3,12.3,0,0,0,6.745,6.225c.027,2.767.037,5.887-.117,7.513-.568,5.935-4.963,8.535-9.085,8.5C46.433,58,41.964,55.2,41.507,49.047ZM55.579,60.259a4.975,4.975,0,0,1-9.879-.085,12.764,12.764,0,0,0,4.923,1.054h.127A12.537,12.537,0,0,0,55.579,60.259Zm-22.573,48.4a3.155,3.155,0,0,1-3.152-3.15V81.517h6.3v23.993A3.153,3.153,0,0,1,33.006,108.66Zm16.048,31.153H35.07V136.38a2.318,2.318,0,0,1,2.316-2.316H49.054Zm1.593-34.348a1.6,1.6,0,0,0-1.593,1.593v23.818H39.343V99.4H61.95v31.477H52.238V107.059a1.591,1.591,0,0,0-1.591-1.593ZM66.223,136.38v3.434H52.238v-5.749H63.907A2.316,2.316,0,0,1,66.223,136.38Zm-2.68-62a1.6,1.6,0,0,0-1.593,1.593V96.211H39.343V79.921a1.6,1.6,0,0,0-1.593-1.593h-7.8c.008-.143.016-.287.024-.428.55-10.5.81-15.511,12.688-16.592a8.17,8.17,0,0,0,15.992-.029,70.927,70.927,0,0,1,12.728,2.2v10.9ZM94.606,18.187h4.722V60.679a6.234,6.234,0,0,0-.775-.05H94.606Zm4.724,87.258H94.608V73.306h3.946a6.234,6.234,0,0,0,.775-.05ZM98.552,70.12H74.558v-6.3H98.552a3.151,3.151,0,0,1,0,6.3Zm39.547,48.9c.643-.906,1.317-1.819,2.024-2.77,3.771-5.077,7.669-10.328,7.653-16.47a17.852,17.852,0,0,0-17.851-17.806h-.045a17.853,17.853,0,0,0-17.806,17.9c.016,6.142,3.941,11.374,7.736,16.433.709.945,1.389,1.859,2.037,2.759-6.358,1.7-10.338,5.229-10.328,9.348.008,2.961,2.077,5.654,5.824,7.584a28.1,28.1,0,0,0,12.593,2.709h.088c10.362-.027,18.467-4.586,18.451-10.386-.011-4.119-4.01-7.63-10.375-9.3ZM115.261,99.862a14.666,14.666,0,0,1,14.627-14.7h.037a14.665,14.665,0,0,1,14.662,14.627c.013,5.085-3.564,9.9-7.024,14.563-1.1,1.479-2.233,3.009-3.224,4.512l-4.35,6.612L125.6,118.89c-1-1.5-2.14-3.022-3.245-4.5-3.484-4.647-7.085-9.449-7.1-14.531Zm14.752,35.651h-.08a24.892,24.892,0,0,1-11.132-2.356c-2.6-1.338-4.092-3.073-4.1-4.759-.008-2.68,3.747-5.343,9.061-6.527l4.9,7.372a1.6,1.6,0,0,0,1.328.712h0a1.6,1.6,0,0,0,1.328-.717l4.868-7.4c5.319,1.155,9.087,3.8,9.093,6.482C145.3,131.706,139.026,135.493,130.013,135.514Zm-.09-25.68h.027a10.008,10.008,0,0,0-.027-20.015H129.9a10.008,10.008,0,0,0,.027,20.015Zm-4.833-14.821a6.784,6.784,0,0,1,4.82-2.01h.019a6.821,6.821,0,0,1,.019,13.642h-.019a6.822,6.822,0,0,1-4.839-11.632Z" transform="translate(-26.67 -15)" fill="#c5a07a"/></svg>