<svg xmlns="http://www.w3.org/2000/svg" width="62.827" height="74.016" viewBox="0 0 62.827 74.016"><g transform="translate(-38.7)"><g transform="translate(38.7)"><path d="M207.185,117.077h-5.9a2.964,2.964,0,0,0-.651-3.209,2.967,2.967,0,0,0-4.192,0l-4.077,4.077a2.967,2.967,0,0,0,0,4.192l4.077,4.077a2.964,2.964,0,0,0,5.06-2.1,3.009,3.009,0,0,0-.217-1.128h5.9a2.956,2.956,0,1,0,0-5.913Zm0,4.467h-9.064l1.5,1.5a1.513,1.513,0,1,1-2.14,2.14l-4.091-4.091a1.5,1.5,0,0,1,0-2.14l4.077-4.077a1.513,1.513,0,1,1,2.14,2.14l-1.5,1.5h9.078a1.511,1.511,0,1,1,0,3.021Z" transform="translate(-169.411 -96.665)" fill="#7d8c48"/><path d="M91.87,49.31a44.562,44.562,0,0,0-8.6-2.6C88.6,38.482,93.474,29.346,93.474,23.361a23.361,23.361,0,1,0-46.722,0c0,5.985,4.857,15.121,10.206,23.347a44.562,44.562,0,0,0-8.6,2.6C42.126,51.97,38.7,55.671,38.7,59.718s3.426,7.749,9.657,10.408c5.826,2.515,13.56,3.889,21.757,3.889s15.931-1.373,21.757-3.874c6.231-2.674,9.657-6.361,9.657-10.408S98.1,51.984,91.87,49.31ZM70.113,1.446A21.92,21.92,0,0,1,92.029,23.361c0,9.093-12.346,26.527-18.5,34.666a4.287,4.287,0,0,1-6.823,0c-6.158-8.139-18.5-25.573-18.5-34.666A21.92,21.92,0,0,1,70.113,1.446ZM65.545,58.909a5.732,5.732,0,0,0,9.136,0c1.373-1.807,2.935-3.918,4.539-6.2,7.749,1.214,13.155,3.9,13.155,7.026,0,4.25-9.989,7.705-22.263,7.705s-22.263-3.455-22.263-7.705c0-3.123,5.407-5.826,13.155-7.026C62.625,54.977,64.172,57.087,65.545,58.909ZM70.113,72.57c-16.552,0-29.968-5.754-29.968-12.852,0-5.219,7.243-9.7,17.651-11.71.766,1.156,1.532,2.284,2.284,3.368a38.331,38.331,0,0,0-6.187,1.532c-6.187,2.154-7.488,4.886-7.488,6.809s1.3,4.669,7.5,6.809a51.56,51.56,0,0,0,16.205,2.342,51.56,51.56,0,0,0,16.205-2.342c6.2-2.14,7.5-4.886,7.5-6.809s-1.3-4.669-7.5-6.809a37.954,37.954,0,0,0-6.187-1.532c.752-1.084,1.518-2.212,2.284-3.368,10.408,2.009,17.651,6.505,17.651,11.71C100.081,66.816,86.666,72.57,70.113,72.57ZM87.822,23.361A17.709,17.709,0,1,0,70.113,41.07,17.728,17.728,0,0,0,87.822,23.361Zm-33.972,0A16.263,16.263,0,1,1,70.113,39.639,16.26,16.26,0,0,1,53.85,23.361Zm29.693,0a13.43,13.43,0,1,0-13.43,13.43A13.45,13.45,0,0,0,83.543,23.361Zm-25.414,0A11.984,11.984,0,1,1,70.113,35.345,11.981,11.981,0,0,1,58.129,23.361Z" transform="translate(-38.7 0)" fill="#7d8c48"/></g></g></svg>