<svg xmlns="http://www.w3.org/2000/svg" width="62" height="61.879" viewBox="0 0 62 61.879"><g transform="translate(-1 -1.121)"><path d="M62,35.121a1,1,0,0,0,1-1v-4a1,1,0,0,0-1-1H61v-5a1,1,0,0,0-1-1H51v-2h7a1,1,0,0,0,1-1v-14a1,1,0,0,0-1-1H38a1,1,0,0,0-1,1v14a1,1,0,0,0,1,1h7v2H36a1,1,0,0,0-1,1v5H28v-5A6.122,6.122,0,0,0,21.879,18H20V16.532a8,8,0,1,0-6,0V18H12.121A6.122,6.122,0,0,0,6,24.121v5H2a1,1,0,0,0-1,1v4a1,1,0,0,0,1,1H3V57H2a1,1,0,0,0-1,1v4a1,1,0,0,0,1,1H62a1,1,0,0,0,1-1V58a1,1,0,0,0-1-1H61V35.121Zm-5-28v2H39v-2Zm-18,4H57v8H39Zm8,10h2v2H47Zm-10,4H59v4H37ZM24.793,21.207A4.151,4.151,0,0,1,26,24.121v5H18V21.414L19.414,20h2.465A4.151,4.151,0,0,1,24.793,21.207ZM22.994,9h-.873A4.121,4.121,0,0,1,18,4.879V3.211A6,6,0,0,1,22.994,9ZM16,3.211V4.878A4.123,4.123,0,0,1,11.879,9h-.873A6,6,0,0,1,16,3.211ZM11.306,11h.573A6.119,6.119,0,0,0,17,8.231a6.17,6.17,0,0,0,.793.976A6.081,6.081,0,0,0,22.121,11h.573a5.994,5.994,0,0,1-11.388,0ZM17,17.121a8.047,8.047,0,0,0,1-.069v1.534l-1,1-1-1V17.052A8.047,8.047,0,0,0,17,17.121Zm-9,7A4.121,4.121,0,0,1,12.121,20h2.465L16,21.414v7.707H8Zm-5,7H61v2H3ZM61,61H3V59H61Zm-2-4H5V35.121H59Z" fill="#7d8c48"/><path d="M20,22h4v2H20Z" fill="#7d8c48"/><path d="M20,55a9,9,0,1,0-9-9A9.01,9.01,0,0,0,20,55Zm7-9a7.006,7.006,0,0,1-6,6.92v-2.1A2.993,2.993,0,0,0,20,45a1,1,0,0,1,0-2h3V41H21V39.08A7.006,7.006,0,0,1,27,46Zm-8-6.92v2.1A2.993,2.993,0,0,0,20,47a1,1,0,0,1,0,2H17v2h2v1.92a6.991,6.991,0,0,1,0-13.84Z" fill="#7d8c48"/><path d="M44,55a9,9,0,1,0-9-9A9.01,9.01,0,0,0,44,55Zm7-9a7.006,7.006,0,0,1-6,6.92v-2.1A2.993,2.993,0,0,0,44,45a1,1,0,0,1,0-2h3V41H45V39.08A7.006,7.006,0,0,1,51,46Zm-8-6.92v2.1A2.993,2.993,0,0,0,44,47a1,1,0,0,1,0,2H41v2h2v1.92a6.991,6.991,0,0,1,0-13.84Z" fill="#7d8c48"/></g></svg>