<svg xmlns="http://www.w3.org/2000/svg" width="66.696" height="71.29" viewBox="0 0 66.696 71.29"><g transform="translate(-55)"><g transform="translate(55)"><g transform="translate(0)"><g transform="translate(0 29.109)"><path d="M120.651,739.181H56.044A1.034,1.034,0,0,1,55,738.137V698.044A1.034,1.034,0,0,1,56.044,697h64.607a1.034,1.034,0,0,1,1.044,1.044v40.134A1.026,1.026,0,0,1,120.651,739.181Zm-63.563-2.046h62.561V699H57.088Z" transform="translate(-55 -697)" fill="#7d8c48" fill-rule="evenodd"/></g><g transform="translate(4.176 33.243)"><path d="M212.3,829.87H156.044A1.034,1.034,0,0,1,155,828.826V797.044A1.061,1.061,0,0,1,156.044,796H212.3a1.061,1.061,0,0,1,1.044,1.044v31.823A1.026,1.026,0,0,1,212.3,829.87Zm-55.211-2.047H211.3V798.046H157.088Z" transform="translate(-155 -796)" fill="#7d8c48" fill-rule="evenodd"/></g><g transform="translate(20.213 37.044)"><path d="M552.114,913.227a13.114,13.114,0,1,1,13.155-13.072A13.1,13.1,0,0,1,552.114,913.227Zm0-24.223a11.109,11.109,0,1,0,11.109,11.151A11.131,11.131,0,0,0,552.114,889Z" transform="translate(-539 -887)" fill="#7d8c48" fill-rule="evenodd"/></g><g transform="translate(28.482 40.218)"><g transform="translate(0 1.336)"><path d="M741.845,1012.206a4.812,4.812,0,0,1-4.845-4.8,1.061,1.061,0,0,1,1.044-1.044,1.034,1.034,0,0,1,1.044,1.044,2.8,2.8,0,0,0,5.6,0c0-2.046-1-2.339-3.049-2.84-1.879-.459-4.552-1.128-4.552-4.761a4.8,4.8,0,0,1,9.606,0,1.044,1.044,0,1,1-2.088,0,2.817,2.817,0,0,0-2.756-2.8,2.854,2.854,0,0,0-2.8,2.8c0,1.963,1,2.339,3.007,2.8,1.921.459,4.594,1.086,4.594,4.8A4.8,4.8,0,0,1,741.845,1012.206Z" transform="translate(-737 -995)" fill="#7d8c48" fill-rule="evenodd"/></g><g transform="translate(3.8)"><path d="M829.044,982.879A1.034,1.034,0,0,1,828,981.835V964.044a1.044,1.044,0,1,1,2.088,0v17.833A1,1,0,0,1,829.044,982.879Z" transform="translate(-828 -963)" fill="#7d8c48" fill-rule="evenodd"/></g></g><g transform="translate(4.51 12.404)"><path d="M180.666,315.71a1.034,1.034,0,0,1-1.044-1.044V299.589A.636.636,0,0,0,179,299H165.673a.6.6,0,0,0-.585.585v15.16a1.045,1.045,0,0,1-2.088,0v-15.16A2.6,2.6,0,0,1,165.589,297h13.364a2.639,2.639,0,0,1,2.631,2.589v15.16A.844.844,0,0,1,180.666,315.71Z" transform="translate(-163 -297)" fill="#7d8c48" fill-rule="evenodd"/></g><g transform="translate(7.643)"><path d="M243.554,11.109a5.554,5.554,0,1,1,5.554-5.554A5.552,5.552,0,0,1,243.554,11.109Zm0-9.063a3.476,3.476,0,0,0-3.508,3.508,3.512,3.512,0,0,0,3.508,3.55,3.547,3.547,0,0,0,3.55-3.55A3.512,3.512,0,0,0,243.554,2.046Z" transform="translate(-238)" fill="#7d8c48" fill-rule="evenodd"/></g><g transform="translate(8.227 19.712)"><path d="M262.315,483.4a1.034,1.034,0,0,1-1.044-1.044v-9.313a1.044,1.044,0,1,1,2.088,0v9.4A1.019,1.019,0,0,1,262.315,483.4Zm-9.271,0A1.034,1.034,0,0,1,252,482.357v-9.313a1.044,1.044,0,1,1,2.088,0v9.4A1.08,1.08,0,0,1,253.044,483.4Z" transform="translate(-252 -472)" fill="#7d8c48" fill-rule="evenodd"/></g><g transform="translate(30.863 3.759)"><path d="M824.195,108.835H795.044A1.034,1.034,0,0,1,794,107.791V91a1,1,0,0,1,1.044-1h29.109a1.026,1.026,0,0,1,1.044,1v16.872A.981.981,0,0,1,824.195,108.835Zm-28.107-2h27.062V92.046H796.088Z" transform="translate(-794 -90)" fill="#7d8c48" fill-rule="evenodd"/></g><g transform="translate(43.266 20.506)"><path d="M1096.471,498.141a1.034,1.034,0,0,1-1.044-1.044v-5.053a1.044,1.044,0,0,1,2.088,0V497.1A1.06,1.06,0,0,1,1096.471,498.141Zm-4.427,0A1.034,1.034,0,0,1,1091,497.1v-5.053a1.044,1.044,0,1,1,2.088,0V497.1A1.06,1.06,0,0,1,1092.044,498.141Z" transform="translate(-1091 -491)" fill="#7d8c48" fill-rule="evenodd"/></g><g transform="translate(36.918 25.559)"><path d="M957.125,617.555a1.034,1.034,0,0,1-1.044-1.044v-2.422H941.088v2.422a1.044,1.044,0,0,1-2.088,0v-3.466A1.034,1.034,0,0,1,940.044,612h17.081a1.034,1.034,0,0,1,1.044,1.044v3.466A1.121,1.121,0,0,1,957.125,617.555Z" transform="translate(-939 -612)" fill="#7d8c48" fill-rule="evenodd"/></g><g transform="translate(30.863 16.58)"><path d="M824.195,399H795.044a1.019,1.019,0,0,1-1.044-.961A1.061,1.061,0,0,1,795.044,397h29.109a1.034,1.034,0,0,1,1.044,1.044A.932.932,0,0,1,824.195,399Z" transform="translate(-794 -397)" fill="#7d8c48" fill-rule="evenodd"/></g></g></g></g></svg>