<svg xmlns="http://www.w3.org/2000/svg" width="67.8" height="76.036" viewBox="0 0 67.8 76.036"><g transform="translate(-4.4 -0.973)"><path d="M11.086,31.572h15.8a1.086,1.086,0,1,0,0-2.172h-15.8a1.086,1.086,0,1,0,0,2.172Z" transform="translate(1.156 5.867)" fill="#7d8c48"/><path d="M10.9,22.8h2.292v2.292H10.9Z" transform="translate(1.342 4.505)" fill="#7d8c48"/><path d="M16.6,22.8h2.292v2.292H16.6Z" transform="translate(2.518 4.505)" fill="#7d8c48"/><path d="M22.2,22.8h2.292v2.292H22.2Z" transform="translate(3.674 4.505)" fill="#7d8c48"/><path d="M34.6,29.086a1.081,1.081,0,0,0,1.086,1.086H57.763a1.086,1.086,0,1,0,0-2.172H35.686A1.081,1.081,0,0,0,34.6,29.086Z" transform="translate(6.233 5.579)" fill="#7d8c48"/><path d="M5.486,72.183h19.3a5.5,5.5,0,0,0,5.549,4.826H66.53a5.664,5.664,0,0,0,5.67-5.67V29.6a3.452,3.452,0,0,0-3.378-3.378H47.348V16.689A1.081,1.081,0,0,0,46.262,15.6H39.386V12.225A1.081,1.081,0,0,0,38.3,11.139H30.7l-.241-.724a.991.991,0,0,1,.121-.844,6.465,6.465,0,0,0,.844-3.981A5.5,5.5,0,0,0,26.6,1.006a5.652,5.652,0,0,0-6.273,5.549,6.067,6.067,0,0,0,.965,3.257.9.9,0,0,1,.241.844l-.121.362H13.569A1.081,1.081,0,0,0,12.483,12.1v3.378h-7A1.081,1.081,0,0,0,4.4,16.568V70.856a1.228,1.228,0,0,0,1.086,1.327Zm21.474-.844v-3.86h6.756v3.86a3.452,3.452,0,0,1-3.378,3.378,3.372,3.372,0,0,1-3.378-3.378ZM69.908,29.6V71.339a3.452,3.452,0,0,1-3.378,3.378H34.922a5.487,5.487,0,0,0,1.206-3.378V29.6a1.081,1.081,0,0,1,1.086-1.086H68.943a1.064,1.064,0,0,1,.965,1.086ZM37.093,13.311v6.756H34.077l-2.533-6.756Zm-7.962,0,2.533,6.756H20.325l2.654-6.756ZM23.22,8.485a3.645,3.645,0,0,1-.6-1.93,3.285,3.285,0,0,1,6.515-.6,3.4,3.4,0,0,1-.483,2.413,3.467,3.467,0,0,0-.362,2.654H23.7a3.247,3.247,0,0,0-.483-2.533Zm-8.565,4.826h5.911l-2.654,6.756H14.654ZM6.692,17.775h5.67v3.378a1.081,1.081,0,0,0,1.086,1.086H38.179a1.081,1.081,0,0,0,1.086-1.086V17.775h5.67v8.445H36.973A3.452,3.452,0,0,0,33.595,29.6v35.71H25.753a1.081,1.081,0,0,0-1.086,1.086v3.378H6.572v-52Z" transform="translate(0)" fill="#7d8c48"/><path d="M11.086,38.072h15.8a1.086,1.086,0,1,0,0-2.172h-15.8a1.086,1.086,0,0,0,0,2.172Z" transform="translate(1.156 7.209)" fill="#7d8c48"/><path d="M11.086,44.572h15.8a1.086,1.086,0,0,0,0-2.172h-15.8a1.086,1.086,0,0,0,0,2.172Z" transform="translate(1.156 8.551)" fill="#7d8c48"/><path d="M26.89,51.072a1.086,1.086,0,0,0,0-2.172h-15.8a1.086,1.086,0,0,0,0,2.172Z" transform="translate(1.156 9.892)" fill="#7d8c48"/><path d="M57.763,33.6H35.686A1.081,1.081,0,0,0,34.6,34.686V61.83a1.081,1.081,0,0,0,1.086,1.086H57.763a1.081,1.081,0,0,0,1.086-1.086V34.686C58.969,34.083,58.366,33.6,57.763,33.6ZM36.892,44.94h5.067V51.7H36.892Zm7.359,0h5.067V51.7H44.251Zm7.359,0h5.067V51.7H51.61Zm5.067-2.292H51.61V35.892h5.067Zm-7.359,0H44.251V35.892h5.067ZM36.892,35.892h5.067v6.756H36.892Zm0,17.975h5.067v6.756H36.892Zm7.359,0h5.067v6.756H44.251Zm12.426,6.876H51.61V53.988h5.067Z" transform="translate(6.233 6.734)" fill="#7d8c48"/></g></svg>