<svg xmlns="http://www.w3.org/2000/svg" width="155.652" height="131.514" viewBox="0 0 155.652 131.514"><g transform="translate(0 -3.361)"><g transform="translate(0 3.361)"><path d="M15.439,109.6H74.36V14.795H15.439Zm60.287,2.73H14.073a1.365,1.365,0,0,1-1.364-1.364V13.429a1.366,1.366,0,0,1,1.364-1.366H75.726a1.366,1.366,0,0,1,1.364,1.366v97.537A1.365,1.365,0,0,1,75.726,112.331Z" transform="translate(32.925 19.183)" fill="#c5a07a"/><path d="M73.5,93.293H31.245a1.365,1.365,0,1,1,0-2.73H72.139V22.141H31.245a1.364,1.364,0,1,1,0-2.729H73.5a1.366,1.366,0,0,1,1.366,1.364V91.928A1.366,1.366,0,0,1,73.5,93.293Z" transform="translate(77.406 38.222)" fill="#c5a07a"/><path d="M44.562,93.293H2.3A1.366,1.366,0,0,1,.94,91.928V20.777A1.365,1.365,0,0,1,2.3,19.412H44.562a1.364,1.364,0,1,1,0,2.729H3.671V90.562H44.562a1.365,1.365,0,1,1,0,2.73Z" transform="translate(2.436 38.222)" fill="#c5a07a"/><path d="M40.492,68.042a1.366,1.366,0,0,1-1.366-1.364V31.889H21.14V66.678a1.365,1.365,0,0,1-2.73,0V30.523a1.365,1.365,0,0,1,1.366-1.364H40.492a1.366,1.366,0,0,1,1.366,1.364V66.678a1.366,1.366,0,0,1-1.366,1.364Z" transform="translate(47.693 63.472)" fill="#c5a07a"/><path d="M22.659,68.042a1.365,1.365,0,0,1-1.366-1.364V30.523a1.365,1.365,0,0,1,2.73,0V66.678A1.366,1.366,0,0,1,22.659,68.042Z" transform="translate(55.165 63.472)" fill="#c5a07a"/><path d="M27.555,32.128h8.227V17.27H27.555Zm9.592,2.73H26.19a1.366,1.366,0,0,1-1.366-1.364V15.906A1.366,1.366,0,0,1,26.19,14.54H37.148a1.366,1.366,0,0,1,1.366,1.366V33.494A1.366,1.366,0,0,1,37.148,34.858Z" transform="translate(64.31 25.599)" fill="#c5a07a"/><path d="M17.443,32.128h8.23V17.27h-8.23Zm9.595,2.73H16.078a1.366,1.366,0,0,1-1.366-1.364V15.906a1.366,1.366,0,0,1,1.366-1.366H27.038A1.365,1.365,0,0,1,28.4,15.906V33.494A1.365,1.365,0,0,1,27.038,34.858Z" transform="translate(38.113 25.599)" fill="#c5a07a"/><path d="M22.5,32.128h8.231V17.27H22.5Zm9.6,2.73H21.134a1.365,1.365,0,0,1-1.366-1.364V15.906a1.365,1.365,0,0,1,1.366-1.366H32.095a1.366,1.366,0,0,1,1.366,1.366V33.494A1.365,1.365,0,0,1,32.095,34.858Z" transform="translate(51.212 25.599)" fill="#c5a07a"/><path d="M17.443,39.071h8.23V24.213h-8.23Zm9.595,2.73H16.078a1.366,1.366,0,0,1-1.366-1.364V22.849a1.367,1.367,0,0,1,1.366-1.366H27.038A1.366,1.366,0,0,1,28.4,22.849V40.437A1.365,1.365,0,0,1,27.038,41.8Z" transform="translate(38.113 43.586)" fill="#c5a07a"/><path d="M22.5,39.071h8.231V24.213H22.5Zm9.6,2.73H21.134a1.365,1.365,0,0,1-1.366-1.364V22.849a1.366,1.366,0,0,1,1.366-1.366H32.095a1.366,1.366,0,0,1,1.366,1.366V40.437A1.365,1.365,0,0,1,32.095,41.8Z" transform="translate(51.212 43.586)" fill="#c5a07a"/><path d="M27.555,39.071h8.227V24.213H27.555Zm9.592,2.73H26.19a1.366,1.366,0,0,1-1.366-1.364V22.849a1.367,1.367,0,0,1,1.366-1.366H37.148a1.367,1.367,0,0,1,1.366,1.366V40.437A1.366,1.366,0,0,1,37.148,41.8Z" transform="translate(64.31 43.586)" fill="#c5a07a"/><path d="M5.5,34.7h8.231V24.816H5.5Zm9.6,2.73H4.135A1.364,1.364,0,0,1,2.77,36.07V23.452a1.364,1.364,0,0,1,1.364-1.364H15.1a1.364,1.364,0,0,1,1.364,1.364V36.07A1.364,1.364,0,0,1,15.1,37.434Z" transform="translate(7.177 45.152)" fill="#c5a07a"/><path d="M10.556,34.7h8.23V24.816h-8.23Zm9.6,2.73H9.192A1.366,1.366,0,0,1,7.826,36.07V23.452a1.366,1.366,0,0,1,1.366-1.364H20.153a1.366,1.366,0,0,1,1.366,1.364V36.07a1.366,1.366,0,0,1-1.366,1.364Z" transform="translate(20.275 45.152)" fill="#c5a07a"/><path d="M5.5,40.18h8.231V30.293H5.5Zm9.6,2.732H4.135A1.366,1.366,0,0,1,2.77,41.546V28.929a1.365,1.365,0,0,1,1.364-1.366H15.1a1.365,1.365,0,0,1,1.364,1.366V41.546A1.366,1.366,0,0,1,15.1,42.911Z" transform="translate(7.177 59.337)" fill="#c5a07a"/><path d="M10.556,40.18h8.23V30.293h-8.23Zm9.6,2.732H9.192a1.367,1.367,0,0,1-1.366-1.366V28.929a1.366,1.366,0,0,1,1.366-1.366H20.153a1.366,1.366,0,0,1,1.366,1.366V41.546A1.367,1.367,0,0,1,20.153,42.911Z" transform="translate(20.275 59.337)" fill="#c5a07a"/><path d="M5.5,45.657h8.231V35.769H5.5Zm9.6,2.73H4.135A1.364,1.364,0,0,1,2.77,47.023V34.4a1.366,1.366,0,0,1,1.364-1.366H15.1A1.366,1.366,0,0,1,16.461,34.4V47.023A1.364,1.364,0,0,1,15.1,48.387Z" transform="translate(7.177 73.522)" fill="#c5a07a"/><path d="M10.556,45.657h8.23V35.769h-8.23Zm9.6,2.73H9.192a1.366,1.366,0,0,1-1.366-1.364V34.4a1.367,1.367,0,0,1,1.366-1.366H20.153A1.367,1.367,0,0,1,21.519,34.4V47.023A1.366,1.366,0,0,1,20.153,48.387Z" transform="translate(20.275 73.522)" fill="#c5a07a"/><path d="M34.44,34.7h8.23V24.816H34.44Zm9.6,2.73H33.074A1.364,1.364,0,0,1,31.71,36.07V23.452a1.364,1.364,0,0,1,1.364-1.364H44.037A1.364,1.364,0,0,1,45.4,23.452V36.07a1.364,1.364,0,0,1-1.364,1.364Z" transform="translate(82.15 45.152)" fill="#c5a07a"/><path d="M39.5,34.7h8.228V24.816H39.5Zm9.594,2.73H38.132a1.366,1.366,0,0,1-1.366-1.364V23.452a1.366,1.366,0,0,1,1.366-1.364H49.09a1.364,1.364,0,0,1,1.364,1.364V36.07a1.364,1.364,0,0,1-1.364,1.364Z" transform="translate(95.247 45.152)" fill="#c5a07a"/><path d="M34.44,40.18h8.23V30.293H34.44Zm9.6,2.732H33.074a1.366,1.366,0,0,1-1.364-1.366V28.929a1.365,1.365,0,0,1,1.364-1.366H44.037A1.365,1.365,0,0,1,45.4,28.929V41.546A1.366,1.366,0,0,1,44.037,42.911Z" transform="translate(82.15 59.337)" fill="#c5a07a"/><path d="M39.5,40.18h8.228V30.293H39.5Zm9.594,2.732H38.132a1.367,1.367,0,0,1-1.366-1.366V28.929a1.366,1.366,0,0,1,1.366-1.366H49.09a1.365,1.365,0,0,1,1.364,1.366V41.546A1.366,1.366,0,0,1,49.09,42.911Z" transform="translate(95.247 59.337)" fill="#c5a07a"/><path d="M34.44,45.657h8.23V35.769H34.44Zm9.6,2.73H33.074a1.364,1.364,0,0,1-1.364-1.364V34.4a1.366,1.366,0,0,1,1.364-1.366H44.037A1.366,1.366,0,0,1,45.4,34.4V47.023A1.364,1.364,0,0,1,44.037,48.387Z" transform="translate(82.15 73.522)" fill="#c5a07a"/><path d="M39.5,45.657h8.228V35.769H39.5Zm9.594,2.73H38.132a1.366,1.366,0,0,1-1.366-1.364V34.4a1.367,1.367,0,0,1,1.366-1.366H49.09A1.366,1.366,0,0,1,50.454,34.4V47.023A1.364,1.364,0,0,1,49.09,48.387Z" transform="translate(95.247 73.522)" fill="#c5a07a"/><path d="M5.592,21.047l2.531,1.832a1.366,1.366,0,0,1,.5,1.53L7.649,27.38l2.525-1.843a1.369,1.369,0,0,1,1.61,0l2.524,1.843-.974-2.971a1.366,1.366,0,0,1,.5-1.53l2.532-1.832-3.126.007a1.366,1.366,0,0,1-1.3-.946l-.96-2.975-.96,2.975a1.365,1.365,0,0,1-1.3.946h0ZM5.036,32.34a1.364,1.364,0,0,1-1.3-1.789l1.977-6.045L.564,20.78a1.366,1.366,0,0,1,.8-2.472h0l6.357.013,1.955-6.052a1.366,1.366,0,0,1,2.6,0l1.953,6.052,6.357-.013a1.366,1.366,0,0,1,.8,2.472L16.24,24.507l1.977,6.045a1.365,1.365,0,0,1-2.1,1.527l-5.139-3.747L5.839,32.078a1.363,1.363,0,0,1-.8.262Z" transform="translate(0 17.268)" fill="#c5a07a"/><path d="M14.179,15.333l2.531,1.831a1.372,1.372,0,0,1,.5,1.53l-.974,2.971,2.524-1.841a1.365,1.365,0,0,1,1.61,0l2.524,1.841-.97-2.971a1.366,1.366,0,0,1,.5-1.53l2.532-1.831-3.126.006h0a1.364,1.364,0,0,1-1.3-.946l-.96-2.973-.96,2.973a1.365,1.365,0,0,1-1.3.946ZM25.506,26.625a1.36,1.36,0,0,1-.8-.262l-5.137-3.747-5.139,3.747a1.365,1.365,0,0,1-2.1-1.527L14.3,18.792,9.151,15.066a1.367,1.367,0,0,1,.8-2.473h0l6.357.013,1.953-6.052a1.366,1.366,0,0,1,2.6,0l1.956,6.052,6.357-.013h0a1.367,1.367,0,0,1,.8,2.473l-5.153,3.726L26.8,24.836a1.363,1.363,0,0,1-1.3,1.789Z" transform="translate(22.242 2.463)" fill="#c5a07a"/><path d="M29.606,17.314a1.362,1.362,0,0,1,.8.263l2.524,1.841-.971-2.969a1.364,1.364,0,0,1,.5-1.531l2.532-1.832-3.111.007h0a1.378,1.378,0,0,1-1.312-.946l-.96-2.975-.96,2.975a1.367,1.367,0,0,1-1.3.946h0l-3.121-.007,2.531,1.832a1.364,1.364,0,0,1,.494,1.531l-.97,2.969L28.8,17.577a1.371,1.371,0,0,1,.808-.263Zm-5.941,7.064a1.364,1.364,0,0,1-1.3-1.789l1.974-6.043-5.148-3.729a1.365,1.365,0,0,1,.8-2.471l6.36.013,1.953-6.05a1.365,1.365,0,0,1,2.6,0l1.951,6.05,6.362-.013h0a1.366,1.366,0,0,1,.8,2.471l-5.153,3.729,1.977,6.043a1.365,1.365,0,0,1-2.1,1.527l-5.138-3.747L24.47,24.117a1.367,1.367,0,0,1-.8.261Z" transform="translate(48.257 -3.361)" fill="#c5a07a"/><path d="M34.26,15.287l2.532,1.832a1.366,1.366,0,0,1,.5,1.53l-.974,2.971,2.528-1.841a1.358,1.358,0,0,1,1.606,0l2.524,1.841L42,18.65a1.366,1.366,0,0,1,.5-1.53l2.531-1.832-3.125.006h0a1.365,1.365,0,0,1-1.3-.945l-.96-2.975-.96,2.973a1.363,1.363,0,0,1-1.3.946h0ZM33.706,26.58a1.364,1.364,0,0,1-1.3-1.789l1.977-6.043L29.234,15.02a1.366,1.366,0,0,1,.8-2.472h0l6.357.013L38.346,6.51a1.365,1.365,0,0,1,2.6,0L42.9,12.561l6.357-.013h0a1.366,1.366,0,0,1,.8,2.472l-5.152,3.729,1.977,6.042a1.364,1.364,0,0,1-2.1,1.529l-5.138-3.747-5.138,3.747a1.36,1.36,0,0,1-.8.261Z" transform="translate(74.269 2.344)" fill="#c5a07a"/><path d="M42.824,21.048l2.532,1.832a1.361,1.361,0,0,1,.5,1.53l-.971,2.971,2.525-1.843a1.369,1.369,0,0,1,1.61,0l2.524,1.843-.97-2.971a1.364,1.364,0,0,1,.493-1.53L53.6,21.048l-3.125.006h0a1.368,1.368,0,0,1-1.3-.945l-.96-2.975-.96,2.975a1.362,1.362,0,0,1-1.3.945h0ZM42.27,32.341a1.349,1.349,0,0,1-.8-.26,1.369,1.369,0,0,1-.5-1.529l1.977-6.045L37.8,20.781a1.366,1.366,0,0,1,.8-2.472h0l6.361.013,1.951-6.052a1.365,1.365,0,0,1,2.6,0l1.953,6.052,6.36-.013a1.364,1.364,0,0,1,.8,2.472l-5.148,3.727,1.977,6.045a1.367,1.367,0,0,1-2.105,1.527l-5.137-3.748-5.134,3.748A1.379,1.379,0,0,1,42.27,32.341Z" transform="translate(96.459 17.267)" fill="#c5a07a"/></g></g></svg>