<svg xmlns="http://www.w3.org/2000/svg" width="86.206" height="86.206" viewBox="0 0 86.206 86.206"><g transform="translate(-1101.451 -1466.821)"><path d="M43.1,0A43.1,43.1,0,1,1,0,43.1,43.1,43.1,0,0,1,43.1,0Z" transform="translate(1101.451 1466.821)" fill="#b8dcf3"/><path d="M-5.742-25.459h4.658q5.537,0,5.537-5.42a4.687,4.687,0,0,0-1.318-3.442A5,5,0,0,0-.586-35.654,5.352,5.352,0,0,0-4-34.512a3.486,3.486,0,0,0-1.45,2.842h-9.873a10.107,10.107,0,0,1,1.875-6.006,12.382,12.382,0,0,1,5.2-4.116,17.779,17.779,0,0,1,7.31-1.479q7.119,0,11.191,3.252a10.811,10.811,0,0,1,4.072,8.936,9.01,9.01,0,0,1-1.685,5.2,12.007,12.007,0,0,1-4.907,3.97,11.468,11.468,0,0,1,5.332,3.735A9.837,9.837,0,0,1,15-11.982a11.007,11.007,0,0,1-4.395,9.141Q6.211.586-.937.586a18.917,18.917,0,0,1-7.778-1.6A12.187,12.187,0,0,1-14.15-5.435,11.5,11.5,0,0,1-16-11.865h9.932a4.445,4.445,0,0,0,1.582,3.4,5.585,5.585,0,0,0,3.9,1.436,5.85,5.85,0,0,0,4.16-1.45,4.847,4.847,0,0,0,1.553-3.706q0-3.223-1.611-4.57A6.736,6.736,0,0,0-.937-18.105h-4.8Z" transform="translate(1144.451 1527.673)" fill="#20849e"/></g></svg>