<svg xmlns="http://www.w3.org/2000/svg" width="86.206" height="86.206" viewBox="0 0 86.206 86.206"><g transform="translate(-410.119 -8978.021)"><circle cx="43.103" cy="43.103" r="43.103" transform="translate(410.119 8978.021)" fill="#b8dcf3"/><g transform="translate(429.695 8995.348)"><path d="M44.843,21.46H42.517a2.153,2.153,0,0,0-1.358-2.8,8.041,8.041,0,0,0-6.716-7.319,2.165,2.165,0,0,0,.17-.844,2.192,2.192,0,0,0-4.384,0,2.172,2.172,0,0,0,.17.845,8.041,8.041,0,0,0-6.716,7.319,2.152,2.152,0,0,0-1.358,2.8H19.268V17.076h.221l3.5-2.33a3.143,3.143,0,0,0,1.367-3.058L22.824,1H14.25L12.724,11.686a3.041,3.041,0,0,0-.032.446,3.138,3.138,0,0,0,1.4,2.614l3.5,2.33h.221V21.46h-6.8a.728.728,0,0,1-.72-.61l-.749-4.495a4.37,4.37,0,0,0-4.324-3.664H3.192a2.192,2.192,0,0,0,0,4.384H4.877a.728.728,0,0,1,.72.61l.749,4.495a4.362,4.362,0,0,0,3.422,3.562V38.132a4.382,4.382,0,1,0,4.384,0v-.525a4.144,4.144,0,0,1,2.072,1.207,5.145,5.145,0,0,0,7.545,0,3.715,3.715,0,0,1,5.605,0,5.15,5.15,0,0,0,7.549,0A4.143,4.143,0,0,1,39,37.605v.527a4.382,4.382,0,1,0,4.384,0V25.845h1.461A1.463,1.463,0,0,0,46.3,24.383V22.922A1.463,1.463,0,0,0,44.843,21.46ZM14.9,13.53a1.677,1.677,0,0,1-.748-1.4,1.738,1.738,0,0,1,.017-.237l1.347-9.433h6.04L22.906,11.9a1.83,1.83,0,0,1,.016.236,1.678,1.678,0,0,1-.748,1.4l-3.127,2.085H18.027Zm17.52-3.761a.731.731,0,1,1-.731.731A.731.731,0,0,1,32.421,9.769Zm-.731,2.923h1.461a6.584,6.584,0,0,1,6.533,5.846H25.157A6.584,6.584,0,0,1,31.69,12.692Zm-8.038,8.038A.731.731,0,0,1,24.383,20H40.459a.731.731,0,0,1,0,1.461H24.383A.731.731,0,0,1,23.652,20.729ZM11.23,25.845h1.461V41.19a.731.731,0,1,1-1.461,0ZM14.884,41.92a2.923,2.923,0,1,1-5.115-1.933v1.2a2.192,2.192,0,1,0,4.384,0v-1.2A2.92,2.92,0,0,1,14.884,41.92Zm21.07-4.2a3.717,3.717,0,0,1-5.608,0,5.148,5.148,0,0,0-7.546,0,3.713,3.713,0,0,1-5.6,0,5.359,5.359,0,0,0-3.043-1.6V25.845H39V36.124A5.35,5.35,0,0,0,35.954,37.721Zm8.159,4.2A2.923,2.923,0,1,1,39,39.987v1.2a2.192,2.192,0,1,0,4.384,0v-1.2A2.92,2.92,0,0,1,44.113,41.92ZM41.92,41.19a.731.731,0,0,1-1.461,0V25.845H41.92Zm2.923-16.807H10.671a2.912,2.912,0,0,1-2.883-2.442l-.749-4.495a2.185,2.185,0,0,0-2.162-1.832H3.192a.731.731,0,0,1,0-1.461h2.02A2.912,2.912,0,0,1,8.1,16.6l.749,4.495a2.185,2.185,0,0,0,2.162,1.832H44.843Z" fill="#20849e"/><path d="M23,37h1.461v1.461H23Z" transform="translate(-5.924 -9.694)" fill="#20849e"/><path d="M29,37h1.461v1.461H29Z" transform="translate(-7.54 -9.694)" fill="#20849e"/><path d="M35,37h1.461v1.461H35Z" transform="translate(-9.155 -9.694)" fill="#20849e"/><path d="M41,37h1.461v1.461H41Z" transform="translate(-10.771 -9.694)" fill="#20849e"/><path d="M47,37h1.461v1.461H47Z" transform="translate(-12.387 -9.694)" fill="#20849e"/></g></g></svg>