<svg xmlns="http://www.w3.org/2000/svg" width="86.206" height="86.206" viewBox="0 0 86.206 86.206"><g transform="translate(-411.119 -9263.021)"><circle cx="43.103" cy="43.103" r="43.103" transform="translate(411.119 9263.021)" fill="#b8dcf3"/><g transform="translate(419.831 9268.167)"><g transform="translate(7.5 11.5)"><path d="M376.33,292.493V276.911a5.411,5.411,0,0,0-5.411-5.411H370" transform="translate(-330.773 -243.365)" fill="none" stroke="#20849e" stroke-linecap="round" stroke-linejoin="round" stroke-miterlimit="10" stroke-width="1"/><line x1="1.515" transform="translate(33.924 28.135)" fill="none" stroke="#20849e" stroke-linecap="round" stroke-linejoin="round" stroke-miterlimit="10" stroke-width="1"/><path d="M95.133,271.5H88.911a5.411,5.411,0,0,0-5.411,5.411v4.761" transform="translate(-75.276 -243.365)" fill="none" stroke="#20849e" stroke-linecap="round" stroke-linejoin="round" stroke-miterlimit="10" stroke-width="1"/><path d="M231.923,289.5,229,292.154l1.235,2.786h3.374l1.234-2.786Z" transform="translate(-205.032 -259.417)" fill="none" stroke="#20849e" stroke-linecap="round" stroke-linejoin="round" stroke-miterlimit="10" stroke-width="1"/><path d="M231.335,353.379l-1.719-13.605h-3.374l-1.719,13.605Z" transform="translate(-201.038 -304.251)" fill="none" stroke="#20849e" stroke-linecap="round" stroke-linejoin="round" stroke-miterlimit="10" stroke-width="1"/><path d="M193.131,231.389,191,235.729l3.135,4.975a.325.325,0,0,0,.493.067l3.406-3.094,3.406,3.094a.325.325,0,0,0,.493-.067l3.135-4.975-2.131-4.34" transform="translate(-171.143 -207.594)" fill="none" stroke="#20849e" stroke-linecap="round" stroke-linejoin="round" stroke-miterlimit="10" stroke-width="1"/><path d="M226,238.412v2.263a.541.541,0,0,0,.172.4l3.075,2.87,3.074-2.87a.541.541,0,0,0,.172-.4v-2.263" transform="translate(-202.356 -213.857)" fill="none" stroke="#20849e" stroke-linecap="round" stroke-linejoin="round" stroke-miterlimit="10" stroke-width="1"/><path d="M206.127,25.33V19.075a7.575,7.575,0,0,0-7.575-7.575h-6.06a7.538,7.538,0,0,0-4.309,1.346" transform="translate(-168.632 -11.5)" fill="none" stroke="#20849e" stroke-linecap="round" stroke-linejoin="round" stroke-miterlimit="10" stroke-width="1"/><path d="M158.784,50.492A7.541,7.541,0,0,0,158,53.847V60.1" transform="translate(-141.714 -46.273)" fill="none" stroke="#20849e" stroke-linecap="round" stroke-linejoin="round" stroke-miterlimit="10" stroke-width="1"/><path d="M154.787,135.56V129.5h-.7a3.084,3.084,0,0,0,0,6.168h.706C154.789,135.632,154.787,135.6,154.787,135.56Z" transform="translate(-135.472 -116.731)" fill="none" stroke="#20849e" stroke-linecap="round" stroke-linejoin="round" stroke-miterlimit="10" stroke-width="1"/><path d="M326.681,129.5h-.7v6.06c0,.036,0,.072,0,.108h.706a3.084,3.084,0,0,0,0-6.168Z" transform="translate(-291.512 -116.731)" fill="none" stroke="#20849e" stroke-linecap="round" stroke-linejoin="round" stroke-miterlimit="10" stroke-width="1"/><g transform="translate(23.374 13.705)"><path d="M239.795,195.933h0a3.165,3.165,0,0,1-4.476,0" transform="translate(-234.04 -189.681)" fill="none" stroke="#20849e" stroke-linecap="round" stroke-linejoin="round" stroke-miterlimit="10" stroke-width="1"/><line y2="1.099" fill="none" stroke="#20849e" stroke-linecap="round" stroke-linejoin="round" stroke-miterlimit="10" stroke-width="1"/><line y2="1.099" transform="translate(7.034)" fill="none" stroke="#20849e" stroke-linecap="round" stroke-linejoin="round" stroke-miterlimit="10" stroke-width="1"/><path d="M246.943,142.016l-1.1,2.2,1.1,1.209" transform="translate(-243.426 -141.598)" fill="none" stroke="#20849e" stroke-linecap="round" stroke-linejoin="round" stroke-miterlimit="10" stroke-width="1"/></g><line x2="2.272" transform="translate(36.413 35.331)" fill="none" stroke="#20849e" stroke-linecap="round" stroke-linejoin="round" stroke-miterlimit="10" stroke-width="1"/><path d="M195.2,116.541h-3.246A5.952,5.952,0,0,1,186,110.59v-6.926a2.164,2.164,0,0,1,2.164-2.164h10.821a2.164,2.164,0,0,1,2.164,2.164v6.926A5.952,5.952,0,0,1,195.2,116.541Z" transform="translate(-166.684 -91.761)" fill="none" stroke="#20849e" stroke-linecap="round" stroke-linejoin="round" stroke-miterlimit="10" stroke-width="1"/><path d="M60.74,469.287H8.041a.541.541,0,0,1-.541-.541v-2.705a.541.541,0,0,1,.541-.541h52.7a.541.541,0,0,1,.541.541v2.705A.541.541,0,0,1,60.74,469.287Z" transform="translate(-7.5 -416.372)" fill="none" stroke="#20849e" stroke-linecap="round" stroke-linejoin="round" stroke-miterlimit="10" stroke-width="1"/><path d="M336.545,366.681h-4.22a.325.325,0,0,1-.325-.325v-5.032a.325.325,0,0,1,.325-.325h4.22a.325.325,0,0,1,.325.325v5.032A.325.325,0,0,1,336.545,366.681Z" transform="translate(-296.885 -323.18)" fill="none" stroke="#20849e" stroke-linecap="round" stroke-linejoin="round" stroke-miterlimit="10" stroke-width="1"/><g transform="translate(2.218 38.307)"><path d="M28.541,365.5H45.855a.541.541,0,0,1,.541.541v2.164H28v-2.164A.541.541,0,0,1,28.541,365.5Z" transform="translate(-28 -365.5)" fill="none" stroke="#20849e" stroke-linecap="round" stroke-linejoin="round" stroke-miterlimit="10" stroke-width="1"/><rect width="18.396" height="2.705" transform="translate(0 2.705)" fill="none" stroke="#20849e" stroke-linecap="round" stroke-linejoin="round" stroke-miterlimit="10" stroke-width="1"/><path d="M46.4,418.205V415.5H28v2.705" transform="translate(-28 -410.089)" fill="none" stroke="#20849e" stroke-linecap="round" stroke-linejoin="round" stroke-miterlimit="10" stroke-width="1"/><path d="M31.787,440.5H28v2.705H46.4V440.5H35.575" transform="translate(-28 -432.384)" fill="none" stroke="#20849e" stroke-linecap="round" stroke-linejoin="round" stroke-miterlimit="10" stroke-width="1"/></g></g></g></g></svg>