<svg xmlns="http://www.w3.org/2000/svg" width="86.206" height="86.206" viewBox="0 0 86.206 86.206"><g transform="translate(-757.348 -9263)"><circle cx="43.103" cy="43.103" r="43.103" transform="translate(757.348 9263)" fill="#b8dcf3"/><g transform="translate(757.774 9268.604)"><path d="M62.1,17.933H51.306c.029-.634.035-1.21.025-1.7a.854.854,0,0,0-.6-.8c-3.863-1.222-6.758-2.389-8.14-2.975a.852.852,0,0,0-.667,0c-1.381.585-4.275,1.752-8.139,2.975a.853.853,0,0,0-.6.8c-.01.488,0,1.065.024,1.7H22.426a.854.854,0,0,0-.853.853V58.457a.854.854,0,0,0,.853.853h.829v2.56a.854.854,0,0,0,.853.853h6.524a.854.854,0,0,0,.853-.853V59.308H53.038v2.56a.853.853,0,0,0,.853.853h6.525a.853.853,0,0,0,.853-.853v-2.56H62.1a.853.853,0,0,0,.853-.853V18.786a.853.853,0,0,0-.856-.853ZM57.09,35.311v6.622H54.348a.532.532,0,0,1-.53-.532V35.842a.532.532,0,0,1,.532-.532ZM56.3,33.6H54.35a2.243,2.243,0,0,0-2.238,2.239V41.4a2.243,2.243,0,0,0,2.239,2.239H56.3v9.021H28.223v-4.04a2.555,2.555,0,0,0,1.8-2.433V31.055a2.555,2.555,0,0,0-1.8-2.433V24.583h6.269a12.623,12.623,0,0,0,7.464,7.874.855.855,0,0,0,.611,0,12.623,12.623,0,0,0,7.464-7.874H56.3ZM27.273,30.2h.2a.854.854,0,0,1,.853.853V46.189a.854.854,0,0,1-.853.853h-.2a.854.854,0,0,1-.853-.853V31.055a.854.854,0,0,1,.853-.853ZM42.262,14.176c1.43.6,4.012,1.618,7.366,2.7a22.938,22.938,0,0,1-.658,5.375c-1.074,4.227-3.33,7.081-6.708,8.489-3.378-1.408-5.634-4.262-6.708-8.489a22.959,22.959,0,0,1-.658-5.375c3.356-1.084,5.937-2.1,7.366-2.7ZM23.28,19.64H33.354a22.7,22.7,0,0,0,.546,3.033c.018.069.038.135.057.2H27.369a.854.854,0,0,0-.853.853v4.892a2.555,2.555,0,0,0-1.8,2.433V46.189a2.555,2.555,0,0,0,1.8,2.433v4.892a.854.854,0,0,0,.853.853H57.154a.853.853,0,0,0,.853-.853V43.633a.851.851,0,0,0,.789-.847V34.457a.851.851,0,0,0-.789-.847V23.729a.853.853,0,0,0-.853-.853H50.567c.019-.068.039-.134.057-.2a22.714,22.714,0,0,0,.546-3.033H61.244V57.6H23.28Zm6.5,41.376H24.96V59.308h4.818Zm29.784,0H54.745V59.308h4.819Z" fill="#20849e"/><path d="M58.261,31.325a.852.852,0,0,0,1.22,0l4.076-4.162a.853.853,0,1,0-1.219-1.194L58.873,29.51l-1.422-1.459a.853.853,0,1,0-1.222,1.192Z" transform="translate(-17.633 -6.823)" fill="#20849e"/></g></g></svg>