<svg xmlns="http://www.w3.org/2000/svg" width="86.206" height="86.206" viewBox="0 0 86.206 86.206"><g transform="translate(-1101.348 -9263)"><circle cx="43.103" cy="43.103" r="43.103" transform="translate(1101.348 9263)" fill="#b8dcf3"/><g transform="translate(1106.468 9258.789)"><g transform="translate(8.88 24.211)"><path d="M125.462,46.775a.653.653,0,0,1-.653-.653V24.9a.653.653,0,1,1,1.306,0v21.22A.653.653,0,0,1,125.462,46.775Z" transform="translate(-82.314 -24.235)" fill="#20849e" fill-rule="evenodd"/><path d="M21.664,46.775a.653.653,0,0,1-.653-.653V24.9a.653.653,0,1,1,1.306,0v21.22A.653.653,0,0,1,21.664,46.775Z" transform="translate(-16.564 -24.235)" fill="#20849e" fill-rule="evenodd"/><path d="M50.23,75.74a.653.653,0,0,1-.653-.653V72.663a1.274,1.274,0,0,0-1.071-1.382h-5.03A1.259,1.259,0,0,0,42.4,72.663v2.423a.653.653,0,0,1-1.306,0V72.663a2.55,2.55,0,0,1,2.377-2.689h5.031a2.55,2.55,0,0,1,2.377,2.689v2.425a.653.653,0,0,1-.653.653Z" transform="translate(-29.288 -53.199)" fill="#20849e" fill-rule="evenodd"/><path d="M90.757,75.74a.653.653,0,0,1-.653-.653V72.663a1.274,1.274,0,0,0-1.071-1.382H84a1.259,1.259,0,0,0-1.072,1.382v2.423a.653.653,0,0,1-1.306,0V72.663A2.551,2.551,0,0,1,84,69.974h5.029a2.55,2.55,0,0,1,2.377,2.689v2.425a.653.653,0,0,1-.653.653Z" transform="translate(-54.96 -53.199)" fill="#20849e" fill-rule="evenodd"/><path d="M11.258,102.567a1.943,1.943,0,0,1-.318-.02,2.4,2.4,0,0,1-2.061-2.37V87.395c0-2.9,1.817-5.256,4.05-5.256H53.078a3.682,3.682,0,0,1,2.893,1.567.653.653,0,1,1-1.041.789,2.368,2.368,0,0,0-1.852-1.05H12.93c-1.513,0-2.743,1.772-2.743,3.95v12.782a1.089,1.089,0,0,0,.939,1.076l.019,0a.822.822,0,0,0,.113,0,1.064,1.064,0,0,0,1.038-.8l.78-2.964a1.557,1.557,0,0,1,1.513-1.16H47.711a.653.653,0,0,1,0,1.306H14.589a.249.249,0,0,0-.248.184l-.779,2.959a2.367,2.367,0,0,1-2.3,1.784Z" transform="translate(-8.88 -60.905)" fill="#20849e" fill-rule="evenodd"/><path d="M59.712,30H56.821a8.072,8.072,0,0,1-5.5-2.286,7.763,7.763,0,0,0-4.885-2.2H34.913a7.762,7.762,0,0,0-4.886,2.2A8.076,8.076,0,0,1,24.529,30H21.664a.653.653,0,1,1,0-1.306h2.865a6.787,6.787,0,0,0,4.613-1.94,9.106,9.106,0,0,1,5.771-2.545H46.437a9.105,9.105,0,0,1,5.771,2.545,6.788,6.788,0,0,0,4.613,1.94h2.891a.653.653,0,0,1,0,1.306Z" transform="translate(-16.564 -24.211)" fill="#20849e" fill-rule="evenodd"/><path d="M62.091,60.955a.653.653,0,0,1-.653-.653V47.94H31.23V60.3a.653.653,0,0,1-1.306,0V47.287a.652.652,0,0,1,.653-.652H62.091a.652.652,0,0,1,.653.652V60.3A.653.653,0,0,1,62.091,60.955Z" transform="translate(-22.21 -38.415)" fill="#20849e" fill-rule="evenodd"/><path d="M55.45,107.706H9.533a.653.653,0,1,1,0-1.306H55.45a.653.653,0,0,1,0,1.306Z" transform="translate(-8.88 -76.273)" fill="#20849e" fill-rule="evenodd"/><path d="M55.45,96.85H9.533a.653.653,0,1,1,0-1.306H55.45a.653.653,0,0,1,0,1.306Z" transform="translate(-8.88 -69.396)" fill="#20849e" fill-rule="evenodd"/><path d="M131.458,133.038H117.677a1.293,1.293,0,0,1-.945-.414,1.28,1.28,0,0,1-.341-.961l.57-7.367a.653.653,0,1,1,1.3.1l-.568,7.336,13.745,0-.568-7.334a.653.653,0,1,1,1.3-.1l.57,7.363a1.283,1.283,0,0,1-1.286,1.378Z" transform="translate(-76.98 -87.228)" fill="#20849e" fill-rule="evenodd"/><path d="M114.975,117.432a.709.709,0,0,0-.709.708v.052a.709.709,0,0,0,.709.708h14.868a.709.709,0,0,0,.709-.708v-.052a.709.709,0,0,0-.709-.708Zm14.868,2.774H114.975a2.017,2.017,0,0,1-2.015-2.014v-.052a2.017,2.017,0,0,1,2.015-2.014h14.868a2.017,2.017,0,0,1,2.015,2.014v.052a2.017,2.017,0,0,1-2.015,2.014Z" transform="translate(-74.808 -82.434)" fill="#20849e" fill-rule="evenodd"/><path d="M128.113,137.451a.653.653,0,0,1-.653-.653v-5.484a.653.653,0,1,1,1.306,0V136.8A.653.653,0,0,1,128.113,137.451Z" transform="translate(-83.993 -91.641)" fill="#20849e" fill-rule="evenodd"/><path d="M137.593,137.451a.653.653,0,0,1-.653-.653v-5.484a.653.653,0,1,1,1.306,0V136.8A.653.653,0,0,1,137.593,137.451Z" transform="translate(-89.998 -91.641)" fill="#20849e" fill-rule="evenodd"/><path d="M147.106,137.451a.653.653,0,0,1-.653-.653v-5.484a.653.653,0,1,1,1.306,0V136.8A.653.653,0,0,1,147.106,137.451Z" transform="translate(-96.024 -91.641)" fill="#20849e" fill-rule="evenodd"/><path d="M137.573,91.782a.653.653,0,0,1-.653-.653V77.672a.721.721,0,0,0-.734-.734.734.734,0,0,0-.734.734V91.129a.653.653,0,0,1-1.307,0V77.672a2.04,2.04,0,1,1,4.08,0V91.129a.653.653,0,0,1-.653.653Z" transform="translate(-88.228 -56.783)" fill="#20849e" fill-rule="evenodd"/><path d="M134.621,52.682h0Zm-.459,1.153.848.629a.632.632,0,0,1,.152.159l.306.451.313-.456a.665.665,0,0,1,.15-.154l.848-.629-.848-.629a.637.637,0,0,1-.151-.156l-.312-.458-.3.454a.649.649,0,0,1-.154.161Zm1.3,3.052h0a.654.654,0,0,1-.539-.287l-.78-1.152-1.466-1.088a.655.655,0,0,1,0-1.05l1.465-1.086.78-1.164a.652.652,0,0,1,.54-.289h0a.654.654,0,0,1,.541.286l.793,1.166,1.467,1.088a.654.654,0,0,1,0,1.05L136.8,55.449,136,56.6A.651.651,0,0,1,135.464,56.887Z" transform="translate(-87.131 -41.035)" fill="#20849e" fill-rule="evenodd"/><path d="M149.578,73.036l.852.632a.646.646,0,0,1,.15.154l.313.456.306-.451a.654.654,0,0,1,.152-.159l.852-.632-.855-.642a.651.651,0,0,1-.149-.156l-.306-.451-.313.456a.641.641,0,0,1-.146.152ZM150.9,76.09a.653.653,0,0,1-.539-.283l-.794-1.154L148.1,73.563a.654.654,0,0,1,0-1.047l1.47-1.1.795-1.156a.652.652,0,0,1,.539-.284h0a.654.654,0,0,1,.539.287l.781,1.154,1.468,1.1a.652.652,0,0,1,0,1.047l-1.466,1.087-.78,1.152a.654.654,0,0,1-.539.287h0Z" transform="translate(-96.898 -53.199)" fill="#20849e" fill-rule="evenodd"/><path d="M149.582,36.789l.847.629a.644.644,0,0,1,.15.154l.313.456.306-.451a.653.653,0,0,1,.152-.159l.848-.629-.848-.628A.693.693,0,0,1,151.2,36l-.3-.455-.311.458a.691.691,0,0,1-.152.158ZM150.9,39.84a.653.653,0,0,1-.539-.283l-.794-1.154L148.1,37.314a.654.654,0,0,1,0-1.049l1.468-1.089.794-1.166a.651.651,0,0,1,.54-.286h0a.652.652,0,0,1,.54.289l.78,1.165,1.465,1.086a.653.653,0,0,1,0,1.049L152.218,38.4l-.78,1.152a.654.654,0,0,1-.539.287h0Z" transform="translate(-96.898 -30.237)" fill="#20849e" fill-rule="evenodd"/></g></g></g></svg>