<svg xmlns="http://www.w3.org/2000/svg" width="86.206" height="86.206" viewBox="0 0 86.206 86.206"><g transform="translate(-756.897 -9839.021)"><circle cx="43.103" cy="43.103" r="43.103" transform="translate(756.897 9839.021)" fill="#b8dcf3"/><g transform="translate(751.941 9832.243)"><path d="M112.468,173.528H84.98a2.52,2.52,0,0,1,0-5.041h27.488a2.52,2.52,0,0,1,0,5.041ZM84.98,170.134a.873.873,0,0,0,0,1.747h27.488a.873.873,0,0,0,0-1.747Z" transform="translate(-51.571 -126.959)" fill="#20849e"/><path d="M127.705,43.175H99.84a.824.824,0,0,1-.766-1.125c.066-.168,6.878-16.718,31.558-14.875a.823.823,0,0,1,.762.821v8.911a.824.824,0,0,1-.391.7,5.712,5.712,0,0,0-2.474,4.735.824.824,0,0,1-.823.833ZM101.17,41.528h25.748a7.4,7.4,0,0,1,2.83-5.045V28.766C110.61,27.621,103.13,38.025,101.17,41.528Z" transform="translate(-66.432 0)" fill="#20849e"/><path d="M269.345,66.922h-9.271a.823.823,0,0,1-.787-1.066c.081-.265,2.095-6.46,11.188-6.46h.143a.824.824,0,0,1,.818.823v4.645a.824.824,0,0,1-.433.725,2.616,2.616,0,0,0-.96.945A.824.824,0,0,1,269.345,66.922Zm-7.956-1.647h7.525a4.233,4.233,0,0,1,.875-.863V61.057C264.626,61.264,262.31,63.792,261.389,65.275Z" transform="translate(-210.245 -29.048)" fill="#20849e"/><path d="M323.147,99.6a.824.824,0,0,1-.823-.826l.006-2.147a.823.823,0,1,1,1.647,0l-.006,2.147A.823.823,0,0,1,323.147,99.6Z" transform="translate(-266.854 -61.727)" fill="#20849e"/><path d="M146.037,101.987a2.427,2.427,0,0,1-1.225-.332l-2.294-1.337a.823.823,0,0,1,.829-1.423l2.294,1.337a.787.787,0,0,0,.964-.134,14.888,14.888,0,0,1,2.785-2.229.823.823,0,1,1,.87,1.4,13.217,13.217,0,0,0-2.474,1.978A2.436,2.436,0,0,1,146.037,101.987Z" transform="translate(-105.107 -63.467)" fill="#20849e"/><path d="M402.117,69.669a.823.823,0,0,1-.823-.823v-1.5a2.24,2.24,0,0,1,2.237-2.237.591.591,0,0,0,.591-.59v-4.9a.591.591,0,0,0-.591-.59H399.7a.823.823,0,1,1,0-1.647h3.827a2.24,2.24,0,0,1,2.238,2.237v4.9a2.24,2.24,0,0,1-2.238,2.237.591.591,0,0,0-.591.59v1.5A.823.823,0,0,1,402.117,69.669Z" transform="translate(-335.564 -27.233)" fill="#20849e"/><path d="M67.775,208.288H28.342a3.342,3.342,0,1,1,0-6.685H67.775a3.342,3.342,0,1,1,0,6.685ZM28.342,203.25a1.7,1.7,0,0,0,0,3.391H67.775a1.7,1.7,0,1,0,0-3.391Z" transform="translate(0 -156.681)" fill="#20849e"/><path d="M67.775,208.288H28.342a3.342,3.342,0,1,1,0-6.685H67.775a3.342,3.342,0,1,1,0,6.685ZM28.342,203.25a1.7,1.7,0,0,0,0,3.391H67.775a1.7,1.7,0,1,0,0-3.391Z" transform="translate(0 -156.681)" fill="#20849e"/><path d="M114.028,273.533h-5.353a.824.824,0,0,1-.589-.248L87.425,252.16a.823.823,0,0,1,.589-1.4h6.959a.824.824,0,0,1,.611.272l19.056,21.125a.823.823,0,0,1-.611,1.375Zm-5.006-1.647h3.155l-17.57-19.478H89.971Z" transform="translate(-55.817 -200.801)" fill="#20849e"/><path d="M238.663,264.8a.833.833,0,0,1-.611-.272l-3.008-3.335a.824.824,0,0,1,0-1.1l8.172-9.059a.824.824,0,0,1,.611-.272h6.958a.823.823,0,0,1,.589,1.4l-12.122,12.394A.824.824,0,0,1,238.663,264.8Zm-1.9-4.158,1.924,2.132,10.141-10.368h-4.635Z" transform="translate(-188.328 -200.8)" fill="#20849e"/><path d="M134.8,382.069H129.45a.824.824,0,0,1-.611-1.375l7.876-8.731a.824.824,0,0,1,.595-.272.784.784,0,0,1,.605.247l3.008,3.076a.823.823,0,0,1,0,1.152l-5.531,5.655A.823.823,0,0,1,134.8,382.069Zm-3.5-1.647h3.155l4.726-4.832-1.832-1.874Z" transform="translate(-93.007 -309.337)" fill="#20849e"/><path d="M75.567,458.545H34.3a.823.823,0,0,1,0-1.647H75.567a.823.823,0,0,1,0,1.647Z" transform="translate(-7.604 -385.813)" fill="#20849e"/></g></g></svg>