<svg xmlns="http://www.w3.org/2000/svg" width="86.206" height="86.206" viewBox="0 0 86.206 86.206"><g transform="translate(-756.897 -10124.021)"><circle cx="43.103" cy="43.103" r="43.103" transform="translate(756.897 10124.021)" fill="#b8dcf3"/><g transform="translate(762.276 10129.401)"><path d="M55.827,20.345H47.862V18.172A2.175,2.175,0,0,0,45.689,16h-2.9a2.175,2.175,0,0,0-2.172,2.172v2.172H32.655a3.625,3.625,0,0,0-3.621,3.621H19.621a2.175,2.175,0,0,0-2.172,2.172V45.09A2.176,2.176,0,0,0,16,47.138V57.275a2.175,2.175,0,0,0,2.172,2.172H55.827a3.625,3.625,0,0,0,3.621-3.621V23.965a3.625,3.625,0,0,0-3.621-3.621ZM42.069,18.172a.725.725,0,0,1,.724-.724h2.9a.725.725,0,0,1,.724.724v2.172H42.069Zm-3.621,3.621H50.034V33.379H38.448Zm-2.9,0H37V33.379H35.551Zm0,13.034H37V44.965H35.551ZM30.483,23.965a2.175,2.175,0,0,1,2.172-2.172H34.1V33.379H32.655a2.175,2.175,0,0,1-2.172-2.172Zm0,10.136a3.6,3.6,0,0,0,2.172.726H34.1V44.07l-.4-.8a2.161,2.161,0,0,0-1.943-1.2H30.483Zm-7.241-8.688h5.793v1.448H23.965a.725.725,0,0,1-.724-.724Zm-4.345.724a.725.725,0,0,1,.724-.724h2.172v.724a2.175,2.175,0,0,0,2.172,2.172h5.069V42.069h-2a2.161,2.161,0,0,0-1.943,1.2l-.848,1.7H18.9Zm2.9,31.138a.725.725,0,0,1-.724.724h-2.9a.725.725,0,0,1-.724-.724V47.138a.725.725,0,0,1,.724-.724h2.9a.725.725,0,0,1,.724.724Zm15.931,0A.725.725,0,0,1,37,58H23.117a2.162,2.162,0,0,0,.125-.724V47.138a2.162,2.162,0,0,0-.125-.724H24.69a.724.724,0,0,0,.648-.4l1.048-2.1a.72.72,0,0,1,.648-.4H31.76a.72.72,0,0,1,.648.4l1.048,2.1a.724.724,0,0,0,.648.4H37a.725.725,0,0,1,.724.724Zm.724-22.448H50.034v9.414H38.448ZM52.931,58H39.048a2.162,2.162,0,0,0,.125-.724V47.138a2.163,2.163,0,0,0-.555-1.448H50.034v1.448a.724.724,0,0,0,.724.724h2.172Zm0-13.034v1.448H51.482V34.827h1.448Zm0-11.586H51.482V21.793h1.448ZM58,55.827A2.175,2.175,0,0,1,55.827,58H54.379V34.827h1.448A3.6,3.6,0,0,0,58,34.1Zm0-24.62a2.175,2.175,0,0,1-2.172,2.172H54.379V21.793h1.448A2.175,2.175,0,0,1,58,23.965Z" fill="#20849e"/><path d="M301.069,128h-4.345a.724.724,0,0,0-.724.724v4.345a.724.724,0,0,0,.724.724h4.345a.724.724,0,0,0,.724-.724v-4.345A.724.724,0,0,0,301.069,128Zm-.724,4.345h-2.9v-2.9h2.9Z" transform="translate(-254.655 -101.862)" fill="#20849e"/><path d="M125.069,352a5.069,5.069,0,1,0,5.069,5.069A5.069,5.069,0,0,0,125.069,352Zm0,8.69a3.621,3.621,0,1,1,3.621-3.621A3.621,3.621,0,0,1,125.069,360.69Z" transform="translate(-94.586 -305.587)" fill="#20849e"/><path d="M176,384v1.448a.724.724,0,0,1,.362,1.352l.725,1.254A2.173,2.173,0,0,0,176,384Z" transform="translate(-145.517 -334.69)" fill="#20849e"/><path d="M320,440h7.241v1.448H320Z" transform="translate(-276.483 -385.621)" fill="#20849e"/><path d="M0,0H4.1V1.448H0Z" transform="translate(20.555 32.865) rotate(-45)" fill="#20849e"/><path d="M0,0H8.193V1.448H0Z" transform="translate(20.555 37.209) rotate(-45)" fill="#20849e"/></g></g></svg>