<svg xmlns="http://www.w3.org/2000/svg" width="138.474" height="132" viewBox="0 0 138.474 132"><g transform="translate(-6.5 -18.288)"><g transform="translate(7.5 19.288)"><path d="M331.3,142.653a11.777,11.777,0,0,0,16.488-9.237" transform="translate(-242.385 -102.077)" fill="none" stroke="#c5a07a" stroke-linejoin="round" stroke-miterlimit="10" stroke-width="2"/><line y2="0.275" transform="translate(100.593 62.715)" fill="none" stroke="#c5a07a" stroke-linecap="round" stroke-linejoin="round" stroke-miterlimit="10" stroke-width="2"/><path d="M62.21,268.415v-1.338a9.978,9.978,0,1,0-19.955,0v1.338Z" transform="translate(-32.711 -191.798)" fill="none" stroke="#c5a07a" stroke-linecap="round" stroke-linejoin="round" stroke-miterlimit="10" stroke-width="2"/><path d="M55.559,305.691v-6.13a1.253,1.253,0,0,0-1.253-1.253H28.753a1.253,1.253,0,0,0-1.253,1.253v6.13H55.559Z" transform="translate(-22.008 -221.69)" fill="none" stroke="#c5a07a" stroke-linecap="round" stroke-linejoin="round" stroke-miterlimit="10" stroke-width="2"/><line x1="4.778" transform="translate(17.132 60.793)" fill="none" stroke="#c5a07a" stroke-linecap="round" stroke-linejoin="round" stroke-miterlimit="10" stroke-width="2"/><line y1="4.509" transform="translate(19.521 60.793)" fill="none" stroke="#c5a07a" stroke-linecap="round" stroke-linejoin="round" stroke-miterlimit="10" stroke-width="2"/><path d="M72.719,402.891v-2.879a4.119,4.119,0,0,0-4.119-4.119H64.619a4.119,4.119,0,0,0-4.119,4.119v2.879Z" transform="translate(-45.946 -292.479)" fill="none" stroke="#c5a07a" stroke-linecap="round" stroke-linejoin="round" stroke-miterlimit="10" stroke-width="2"/><path d="M49.277,440.966H11.246A2.746,2.746,0,0,1,8.5,438.22V428.077a6.7,6.7,0,0,1,6.7-6.7h27.38a6.7,6.7,0,0,1,6.7,6.7v12.889Z" transform="translate(-8.225 -310.966)" fill="none" stroke="#c5a07a" stroke-linecap="round" stroke-linejoin="round" stroke-miterlimit="10" stroke-width="2"/><path d="M65.056,466.355v-8.6a1.373,1.373,0,0,0-1.373-1.373H44.873a1.373,1.373,0,0,0-1.373,1.373v8.6Z" transform="translate(-33.615 -336.355)" fill="none" stroke="#c5a07a" stroke-linecap="round" stroke-linejoin="round" stroke-miterlimit="10" stroke-width="2"/><circle cx="20.045" cy="20.045" r="20.045" transform="translate(23.478 8.238)" fill="none" stroke="#c5a07a" stroke-linecap="round" stroke-linejoin="round" stroke-miterlimit="10" stroke-width="2"/><path d="M131.888,105.39l7.834,7.681,10.9-13.114" transform="translate(-97.732 -77.806)" fill="none" stroke="#c5a07a" stroke-linecap="round" stroke-linejoin="round" stroke-miterlimit="10" stroke-width="2"/><path d="M185.333,361.388v9.806H230V332.558a7.363,7.363,0,0,0-7.363-7.363H192.7a7.363,7.363,0,0,0-7.363,7.363v19.219" transform="translate(-136.501 -241.194)" fill="none" stroke="#c5a07a" stroke-linecap="round" stroke-linejoin="round" stroke-miterlimit="10" stroke-width="2"/><path d="M67.789,31.756a28.349,28.349,0,0,0,17.251,43.4,2.734,2.734,0,0,1,1.615,1.071l3.513,4.884a1.373,1.373,0,0,0,2.229,0l3.513-4.884a2.739,2.739,0,0,1,1.619-1.072,28.291,28.291,0,1,0-23.1-50.349" transform="translate(-47.76 -19.288)" fill="none" stroke="#c5a07a" stroke-linecap="round" stroke-linejoin="round" stroke-miterlimit="10" stroke-width="2"/><circle cx="11.78" cy="11.78" r="11.78" transform="translate(88.813 30.313)" fill="none" stroke="#c5a07a" stroke-linecap="round" stroke-linejoin="round" stroke-miterlimit="10" stroke-width="2"/><path d="M337.168,234.987V222.844a7.363,7.363,0,0,0-7.363-7.363H299.864a7.363,7.363,0,0,0-7.363,7.363v1.579" transform="translate(-214.241 -161.607)" fill="none" stroke="#c5a07a" stroke-linejoin="round" stroke-miterlimit="10" stroke-width="2"/><path d="M292.5,316.542v2.376h20.183" transform="translate(-214.24 -234.918)" fill="none" stroke="#c5a07a" stroke-linecap="round" stroke-linejoin="round" stroke-miterlimit="10" stroke-width="2"/><path d="M370.943,286.518h-3.57A1.373,1.373,0,0,0,366,287.891v9.248h30.617v-9.248a1.373,1.373,0,0,0-1.373-1.373H380.554" transform="translate(-267.558 -213.138)" fill="none" stroke="#c5a07a" stroke-linecap="round" stroke-linejoin="round" stroke-miterlimit="10" stroke-width="2"/><g transform="translate(0 84)"><path d="M56.332,332.558a7.363,7.363,0,0,1,7.363-7.363H10.246A2.746,2.746,0,0,0,7.5,327.941v6.865a2.746,2.746,0,0,0,2.746,2.746H56.332Z" transform="translate(-7.5 -325.195)" fill="none" stroke="#c5a07a" stroke-linecap="round" stroke-linejoin="round" stroke-miterlimit="10" stroke-width="2"/><path d="M328.55,337.551h40.228a2.746,2.746,0,0,0,2.746-2.746V327.94a2.746,2.746,0,0,0-2.746-2.746H321.187" transform="translate(-235.05 -325.194)" fill="none" stroke="#c5a07a" stroke-linecap="round" stroke-linejoin="round" stroke-miterlimit="10" stroke-width="2"/></g><circle cx="11.78" cy="11.78" r="11.78" transform="translate(59.386 60.439)" fill="none" stroke="#c5a07a" stroke-linecap="round" stroke-linejoin="round" stroke-miterlimit="10" stroke-width="2"/><g transform="translate(7.342 96.357)"><line x2="7.78" transform="translate(33.71 33.643)" fill="none" stroke="#c5a07a" stroke-linecap="round" stroke-linejoin="round" stroke-miterlimit="10" stroke-width="2"/><line y2="14.055" fill="none" stroke="#c5a07a" stroke-linecap="round" stroke-linejoin="round" stroke-miterlimit="10" stroke-width="2"/><path d="M348,403.837h32.886a2.746,2.746,0,0,0,2.746-2.746v-30.9" transform="translate(-261.843 -370.194)" fill="none" stroke="#c5a07a" stroke-linejoin="round" stroke-miterlimit="10" stroke-width="2"/></g></g></g></svg>