<svg xmlns="http://www.w3.org/2000/svg" xmlns:xlink="http://www.w3.org/1999/xlink" width="292" height="94.399" viewBox="0 0 292 94.399"><defs><clipPath id="a"><rect width="292" height="94.399" rx="20" fill="#d5dcbd"/></clipPath></defs><g clip-path="url(#a)"><path d="M17.59,0H310.128c9.715,0,17.59,2.837,17.59,6.336V135.9c0,3.5-7.875,6.336-17.59,6.336H17.59C7.875,142.233,0,139.4,0,135.9V6.336C0,2.837,7.875,0,17.59,0Z" transform="translate(-17.86 -7.603)" fill="#eaedde"/><path d="M0,14.507H12.749c0-8,9.354-14.489,20.894-14.489S54.534,6.505,54.534,14.507h17.9v-.031C72.453,6.472,81.817-.008,93.355,0s20.882,6.505,20.868,14.507h16.718v-.031c.011-8,9.376-14.483,20.916-14.476s20.879,6.505,20.868,14.507h17.5v-.031C190.24,6.472,199.6-.008,211.142,0s20.882,6.505,20.868,14.507h18.122v-.031c.014-8,9.379-14.483,20.916-14.476s20.882,6.505,20.868,14.507h17.068c0-8,9.354-14.491,20.894-14.491S350.771,6.5,350.771,14.507h17.638v-.031c.014-8,9.376-14.483,20.916-14.476s20.879,6.505,20.868,14.507h17.7v-.031c.014-8,9.376-14.483,20.916-14.476s20.882,6.505,20.868,14.507h14.572" transform="translate(146 14.507) rotate(180)" fill="#eaedde" opacity="0.6" style="mix-blend-mode:hard-light;isolation:isolate"/><path d="M0,18.559H12.749C12.749,8.322,22.1.023,33.643.023s20.891,8.3,20.891,18.536h17.9v-.04C72.453,8.279,81.817-.01,93.355,0s20.882,8.322,20.868,18.559h16.718v-.04C130.952,8.279,140.317-.01,151.857,0s20.879,8.322,20.868,18.559h17.5v-.04C190.24,8.279,199.6-.01,211.142,0s20.882,8.322,20.868,18.559h18.122v-.04C250.146,8.279,259.511-.01,271.049,0s20.882,8.322,20.868,18.559h17.068C308.984,8.32,318.338.02,329.878.02s20.894,8.3,20.894,18.539h17.638v-.04C368.424,8.279,377.786-.01,389.326,0s20.879,8.322,20.868,18.559h17.7v-.04C427.909,8.279,437.271-.01,448.811,0s20.882,8.322,20.868,18.559h14.572" transform="translate(75.123 75.841)" fill="#eaedde" opacity="0.6" style="mix-blend-mode:hard-light;isolation:isolate"/></g></svg>